<?xml version="1.0" encoding="us-ascii" standalone="no"?><svg xmlns="http://www.w3.org/2000/svg" xmlns:xlink="http://www.w3.org/1999/xlink" contentStyleType="text/css" height="473px" preserveAspectRatio="none" style="width:1180px;height:473px;background:#FFFFFF;" version="1.1" viewBox="0 0 1180 473" width="1180px" zoomAndPan="magnify"><defs/><g><!--entity openalex--><g id="elem_openalex"><path d="M623.0768,16.0414 C626.536,8.1752 633.4576,8.6698 637.7156,15.2309 C640.5737,8.2331 646.2631,7.4109 650.6465,13.7525 C654.0666,6.2192 660.4198,6.9137 665.1276,12.3104 C669.2712,6.6001 673.3999,6.9603 677.4009,12.4665 C682.7969,6.154 688.7735,6 692.9929,13.7693 C696.7154,8.6818 701.6084,8.399 704.652,14.4781 C713.9005,15.2022 719.5675,20.6733 714.4803,30.3016 C719.5014,38.9481 714.7791,45.4579 705.2572,44.9441 C702.6699,52.9932 695.8544,53.6121 691.2931,46.7988 C687.9142,53.4491 682.4071,53.8059 677.7591,48.2003 C674.0978,55.2885 669.3043,55.8812 663.6841,50.3926 C659.4888,56.3838 653.8595,53.9633 651.7245,48.2817 C647.4383,55.1988 640.9454,53.5602 637.4161,47.4503 C632.9807,54.0105 627.1866,51.9919 624.3061,45.8459 C613.858,45.7889 611.9405,38.1457 616.8119,30.5721 C611.7368,22.5119 613.4118,17.7463 623.0768,16.0414 " fill="#F1F1F1" style="stroke:#181818;stroke-width:0.5;"/><a href="https://openalex.org" target="_top" title="https://openalex.org" xlink:actuate="onRequest" xlink:href="https://openalex.org" xlink:show="new" xlink:title="https://openalex.org" xlink:type="simple"><text fill="#0000FF" font-family="sans-serif" font-size="14" lengthAdjust="spacing" text-decoration="underline" textLength="68" x="629.5" y="34.7158">OpenAlex</text></a></g><!--entity search_tca--><g id="elem_search_tca"><polygon fill="#F1F1F1" points="700,112.6706,931,112.6706,941,130.9147,931,149.1589,700,149.1589" style="stroke:#181818;stroke-width:0.5;"/><text fill="#000000" font-family="sans-serif" font-size="14" lengthAdjust="spacing" textLength="86" x="710" y="136.2058">Search Term</text><a href="https://ipbes-data.github.io/IPBES_TCA_Corpus/inputs/tca_corpus/search%20terms/nature.txt" target="_top" title="https://ipbes-data.github.io/IPBES_TCA_Corpus/inputs/tca_corpus/search%20terms/nature.txt" xlink:actuate="onRequest" xlink:href="https://ipbes-data.github.io/IPBES_TCA_Corpus/inputs/tca_corpus/search%20terms/nature.txt" xlink:show="new" xlink:title="https://ipbes-data.github.io/IPBES_TCA_Corpus/inputs/tca_corpus/search%20terms/nature.txt" xlink:type="simple"><text fill="#0000FF" font-family="sans-serif" font-size="14" lengthAdjust="spacing" text-decoration="underline" textLength="56" x="800" y="136.2058">NATURE</text></a><text fill="#000000" font-family="sans-serif" font-size="14" lengthAdjust="spacing" textLength="30" x="860" y="136.2058">AND</text><a href="https://ipbes-data.github.io/IPBES_TCA_Corpus/inputs/tca_corpus/search%20terms/tfc.txt" target="_top" title="https://ipbes-data.github.io/IPBES_TCA_Corpus/inputs/tca_corpus/search%20terms/tfc.txt" xlink:actuate="onRequest" xlink:href="https://ipbes-data.github.io/IPBES_TCA_Corpus/inputs/tca_corpus/search%20terms/tfc.txt" xlink:show="new" xlink:title="https://ipbes-data.github.io/IPBES_TCA_Corpus/inputs/tca_corpus/search%20terms/tfc.txt" xlink:type="simple"><text fill="#0000FF" font-family="sans-serif" font-size="14" lengthAdjust="spacing" text-decoration="underline" textLength="27" x="894" y="136.2058">TFC</text></a></g><!--entity corpus_tca--><g id="elem_corpus_tca"><path d="M739.5,219.1606 C739.5,209.1606 820.5,209.1606 820.5,209.1606 C820.5,209.1606 901.5,209.1606 901.5,219.1606 L901.5,244.6489 C901.5,254.6489 820.5,254.6489 820.5,254.6489 C820.5,254.6489 739.5,254.6489 739.5,244.6489 L739.5,219.1606 " fill="#90EE90" style="stroke:#181818;stroke-width:0.5;"/><path d="M739.5,219.1606 C739.5,229.1606 820.5,229.1606 820.5,229.1606 C820.5,229.1606 901.5,229.1606 901.5,219.1606 " fill="none" style="stroke:#181818;stroke-width:0.5;"/><text fill="#000000" font-family="sans-serif" font-size="14" lengthAdjust="spacing" textLength="142" x="749.5" y="246.6958">TCA / Global Corpus</text></g><!--entity search_tca_case--><g id="elem_search_tca_case"><polygon fill="#F1F1F1" points="350,112.6706,655,112.6706,665,130.9147,655,149.1589,350,149.1589" style="stroke:#181818;stroke-width:0.5;"/><text fill="#000000" font-family="sans-serif" font-size="14" lengthAdjust="spacing" textLength="86" x="360" y="136.2058">Search Term</text><a href="https://ipbes-data.github.io/IPBES_TCA_Corpus/inputs/tca_corpus/search%20terms/nature.txt" target="_top" title="https://ipbes-data.github.io/IPBES_TCA_Corpus/inputs/tca_corpus/search%20terms/nature.txt" xlink:actuate="onRequest" xlink:href="https://ipbes-data.github.io/IPBES_TCA_Corpus/inputs/tca_corpus/search%20terms/nature.txt" xlink:show="new" xlink:title="https://ipbes-data.github.io/IPBES_TCA_Corpus/inputs/tca_corpus/search%20terms/nature.txt" xlink:type="simple"><text fill="#0000FF" font-family="sans-serif" font-size="14" lengthAdjust="spacing" text-decoration="underline" textLength="56" x="450" y="136.2058">NATURE</text></a><text fill="#000000" font-family="sans-serif" font-size="14" lengthAdjust="spacing" textLength="30" x="510" y="136.2058">AND</text><a href="https://ipbes-data.github.io/IPBES_TCA_Corpus/inputs/tca_corpus/search%20terms/tfc.txt" target="_top" title="https://ipbes-data.github.io/IPBES_TCA_Corpus/inputs/tca_corpus/search%20terms/tfc.txt" xlink:actuate="onRequest" xlink:href="https://ipbes-data.github.io/IPBES_TCA_Corpus/inputs/tca_corpus/search%20terms/tfc.txt" xlink:show="new" xlink:title="https://ipbes-data.github.io/IPBES_TCA_Corpus/inputs/tca_corpus/search%20terms/tfc.txt" xlink:type="simple"><text fill="#0000FF" font-family="sans-serif" font-size="14" lengthAdjust="spacing" text-decoration="underline" textLength="27" x="544" y="136.2058">TFC</text></a><text fill="#000000" font-family="sans-serif" font-size="14" lengthAdjust="spacing" textLength="30" x="575" y="136.2058">AND</text><a href="https://ipbes-data.github.io/IPBES_TCA_Corpus/inputs/tca_corpus/search%20terms/case.txt" target="_top" title="https://ipbes-data.github.io/IPBES_TCA_Corpus/inputs/tca_corpus/search%20terms/case.txt" xlink:actuate="onRequest" xlink:href="https://ipbes-data.github.io/IPBES_TCA_Corpus/inputs/tca_corpus/search%20terms/case.txt" xlink:show="new" xlink:title="https://ipbes-data.github.io/IPBES_TCA_Corpus/inputs/tca_corpus/search%20terms/case.txt" xlink:type="simple"><text fill="#0000FF" font-family="sans-serif" font-size="14" lengthAdjust="spacing" text-decoration="underline" textLength="36" x="609" y="136.2058">CASE</text></a></g><!--entity corpus_tca_case--><g id="elem_corpus_tca_case"><path d="M437.5,219.1606 C437.5,209.1606 507.5,209.1606 507.5,209.1606 C507.5,209.1606 577.5,209.1606 577.5,219.1606 L577.5,244.6489 C577.5,254.6489 507.5,254.6489 507.5,254.6489 C507.5,254.6489 437.5,254.6489 437.5,244.6489 L437.5,219.1606 " fill="#90EE90" style="stroke:#181818;stroke-width:0.5;"/><path d="M437.5,219.1606 C437.5,229.1606 507.5,229.1606 507.5,229.1606 C507.5,229.1606 577.5,229.1606 577.5,219.1606 " fill="none" style="stroke:#181818;stroke-width:0.5;"/><text fill="#000000" font-family="sans-serif" font-size="14" lengthAdjust="spacing" textLength="120" x="447.5" y="246.6958">TCA Case Corpus</text></g><!--entity search_technology--><g id="elem_search_technology"><polygon fill="#F1F1F1" points="16,112.6706,305,112.6706,315,130.9147,305,149.1589,16,149.1589" style="stroke:#181818;stroke-width:0.5;"/><text fill="#000000" font-family="sans-serif" font-size="14" lengthAdjust="spacing" textLength="86" x="26" y="136.2058">Search Term</text><a href="https://ipbes-data.github.io/IPBES_TCA_Ch2_technology/input/Ch2_technology/technology.txt" target="_top" title="https://ipbes-data.github.io/IPBES_TCA_Ch2_technology/input/Ch2_technology/technology.txt" xlink:actuate="onRequest" xlink:href="https://ipbes-data.github.io/IPBES_TCA_Ch2_technology/input/Ch2_technology/technology.txt" xlink:show="new" xlink:title="https://ipbes-data.github.io/IPBES_TCA_Ch2_technology/input/Ch2_technology/technology.txt" xlink:type="simple"><text fill="#0000FF" font-family="sans-serif" font-size="14" lengthAdjust="spacing" text-decoration="underline" textLength="95" x="116" y="136.2058">TECHNOLOGY</text></a><text fill="#000000" font-family="sans-serif" font-size="14" lengthAdjust="spacing" textLength="30" x="215" y="136.2058">AND</text><a href="https://ipbes-data.github.io/IPBES_TCA_Ch2_technology/input/Ch2_technology/vision.txt" target="_top" title="https://ipbes-data.github.io/IPBES_TCA_Ch2_technology/input/Ch2_technology/vision.txt" xlink:actuate="onRequest" xlink:href="https://ipbes-data.github.io/IPBES_TCA_Ch2_technology/input/Ch2_technology/vision.txt" xlink:show="new" xlink:title="https://ipbes-data.github.io/IPBES_TCA_Ch2_technology/input/Ch2_technology/vision.txt" xlink:type="simple"><text fill="#0000FF" font-family="sans-serif" font-size="14" lengthAdjust="spacing" text-decoration="underline" textLength="46" x="249" y="136.2058">VISION</text></a></g><!--entity corpus_int_technology--><g id="elem_corpus_int_technology"><path d="M171.5,219.1606 C171.5,209.1606 246.5,209.1606 246.5,209.1606 C246.5,209.1606 321.5,209.1606 321.5,219.1606 L321.5,244.6489 C321.5,254.6489 246.5,254.6489 246.5,254.6489 C246.5,254.6489 171.5,254.6489 171.5,244.6489 L171.5,219.1606 " fill="#F1F1F1" style="stroke:#181818;stroke-width:0.5;"/><path d="M171.5,219.1606 C171.5,229.1606 246.5,229.1606 246.5,229.1606 C246.5,229.1606 321.5,229.1606 321.5,219.1606 " fill="none" style="stroke:#181818;stroke-width:0.5;"/><text fill="#000000" font-family="sans-serif" font-size="14" lengthAdjust="spacing" textLength="130" x="181.5" y="246.6958">technology Corpus</text></g><!--entity cross_tca_technology--><g id="elem_cross_tca_technology"><polygon fill="#F1F1F1" points="476,314.6406,655,314.6406,665,332.8847,655,351.1289,476,351.1289" style="stroke:#181818;stroke-width:0.5;"/><text fill="#000000" font-family="sans-serif" font-size="14" lengthAdjust="spacing" textLength="159" x="486" y="338.1758">Cross with TCA Corpus</text></g><!--entity corpus_technology--><g id="elem_corpus_technology"><path d="M493.5,421.1306 C493.5,411.1306 570.5,411.1306 570.5,411.1306 C570.5,411.1306 647.5,411.1306 647.5,421.1306 L647.5,446.6189 C647.5,456.6189 570.5,456.6189 570.5,456.6189 C570.5,456.6189 493.5,456.6189 493.5,446.6189 L493.5,421.1306 " fill="#90EE90" style="stroke:#181818;stroke-width:0.5;"/><path d="M493.5,421.1306 C493.5,431.1306 570.5,431.1306 570.5,431.1306 C570.5,431.1306 647.5,431.1306 647.5,421.1306 " fill="none" style="stroke:#181818;stroke-width:0.5;"/><text fill="#000000" font-family="sans-serif" font-size="14" lengthAdjust="spacing" textLength="134" x="503.5" y="448.6658">Technology Corpus</text></g><!--entity search_subsidies--><g id="elem_search_subsidies"><polygon fill="#F1F1F1" points="975.5,112.6706,1153.5,112.6706,1163.5,130.9147,1153.5,149.1589,975.5,149.1589" style="stroke:#181818;stroke-width:0.5;"/><text fill="#000000" font-family="sans-serif" font-size="14" lengthAdjust="spacing" textLength="86" x="985.5" y="136.2058">Search Term</text><a href="https://ipbes-data.github.io/IPBES_TCA_Ch5_subsidies_reform/input/ch_5_subsidies_reform/government_financial_support.txt" target="_top" title="https://ipbes-data.github.io/IPBES_TCA_Ch5_subsidies_reform/input/ch_5_subsidies_reform/government_financial_support.txt" xlink:actuate="onRequest" xlink:href="https://ipbes-data.github.io/IPBES_TCA_Ch5_subsidies_reform/input/ch_5_subsidies_reform/government_financial_support.txt" xlink:show="new" xlink:title="https://ipbes-data.github.io/IPBES_TCA_Ch5_subsidies_reform/input/ch_5_subsidies_reform/government_financial_support.txt" xlink:type="simple"><text fill="#0000FF" font-family="sans-serif" font-size="14" lengthAdjust="spacing" text-decoration="underline" textLength="68" x="1075.5" y="136.2058">SUBSIDIES</text></a></g><!--entity corpus_int_subsidies--><g id="elem_corpus_int_subsidies"><path d="M968.5,219.1606 C968.5,209.1606 1037.5,209.1606 1037.5,209.1606 C1037.5,209.1606 1106.5,209.1606 1106.5,219.1606 L1106.5,244.6489 C1106.5,254.6489 1037.5,254.6489 1037.5,254.6489 C1037.5,254.6489 968.5,254.6489 968.5,244.6489 L968.5,219.1606 " fill="#F1F1F1" style="stroke:#181818;stroke-width:0.5;"/><path d="M968.5,219.1606 C968.5,229.1606 1037.5,229.1606 1037.5,229.1606 C1037.5,229.1606 1106.5,229.1606 1106.5,219.1606 " fill="none" style="stroke:#181818;stroke-width:0.5;"/><text fill="#000000" font-family="sans-serif" font-size="14" lengthAdjust="spacing" textLength="118" x="978.5" y="246.6958">subsidies Corpus</text></g><!--entity cross_tca_subsidies--><g id="elem_cross_tca_subsidies"><polygon fill="#F1F1F1" points="834,314.6406,1013,314.6406,1023,332.8847,1013,351.1289,834,351.1289" style="stroke:#181818;stroke-width:0.5;"/><text fill="#000000" font-family="sans-serif" font-size="14" lengthAdjust="spacing" textLength="159" x="844" y="338.1758">Cross with TCA Corpus</text></g><!--entity corpus_subsidies--><g id="elem_corpus_subsidies"><path d="M859,421.1306 C859,411.1306 928.5,411.1306 928.5,411.1306 C928.5,411.1306 998,411.1306 998,421.1306 L998,446.6189 C998,456.6189 928.5,456.6189 928.5,456.6189 C928.5,456.6189 859,456.6189 859,446.6189 L859,421.1306 " fill="#90EE90" style="stroke:#181818;stroke-width:0.5;"/><path d="M859,421.1306 C859,431.1306 928.5,431.1306 928.5,431.1306 C928.5,431.1306 998,431.1306 998,421.1306 " fill="none" style="stroke:#181818;stroke-width:0.5;"/><text fill="#000000" font-family="sans-serif" font-size="14" lengthAdjust="spacing" textLength="119" x="869" y="448.6658">Subsidies Corpus</text></g><!--link openalex to search_tca--><g id="link_openalex_search_tca"><path d="M699.13,53.0006 C727.53,71.0006 761.6822,92.6385 787.7622,109.1685 " fill="none" id="openalex-to-search_tca" style="stroke:#181818;stroke-width:1.0;"/><polygon fill="#181818" points="792.83,112.3806,787.3697,104.184,788.6068,109.7039,783.0869,110.941,792.83,112.3806" style="stroke:#181818;stroke-width:1.0;"/></g><!--link search_tca to corpus_tca--><g id="link_search_tca_corpus_tca"><path d="M820.5,149.6106 C820.5,166.1806 820.5,185.0006 820.5,202.8506 " fill="none" id="search_tca-to-corpus_tca" style="stroke:#181818;stroke-width:1.0;"/><polygon fill="#181818" points="820.5,208.8506,824.5,199.8506,820.5,203.8506,816.5,199.8506,820.5,208.8506" style="stroke:#181818;stroke-width:1.0;"/></g><!--link openalex to search_tca_case--><g id="link_openalex_search_tca_case"><path d="M628.1,53.0006 C599.87,71.0006 565.9688,92.6244 540.0488,109.1544 " fill="none" id="openalex-to-search_tca_case" style="stroke:#181818;stroke-width:1.0;"/><polygon fill="#181818" points="534.99,112.3806,544.729,110.9139,539.2057,109.6921,540.4275,104.1688,534.99,112.3806" style="stroke:#181818;stroke-width:1.0;"/></g><!--link search_tca_case to corpus_tca_case--><g id="link_search_tca_case_corpus_tca_case"><path d="M507.5,149.6106 C507.5,166.1806 507.5,185.0006 507.5,202.8506 " fill="none" id="search_tca_case-to-corpus_tca_case" style="stroke:#181818;stroke-width:1.0;"/><polygon fill="#181818" points="507.5,208.8506,511.5,199.8506,507.5,203.8506,503.5,199.8506,507.5,208.8506" style="stroke:#181818;stroke-width:1.0;"/></g><!--link openalex to search_technology--><g id="link_openalex_search_technology"><path d="M614.39,40.2306 C530.71,56.9506 365.2637,90.0051 260.1537,111.0051 " fill="none" id="openalex-to-search_technology" style="stroke:#181818;stroke-width:1.0;"/><polygon fill="#181818" points="254.27,112.1806,263.8793,114.3398,259.1731,111.201,262.3119,106.4949,254.27,112.1806" style="stroke:#181818;stroke-width:1.0;"/></g><!--link search_technology to corpus_int_technology--><g id="link_search_technology_corpus_int_technology"><path d="M179.98,149.6106 C193.54,166.1806 210.0497,186.3576 224.6597,204.2076 " fill="none" id="search_technology-to-corpus_int_technology" style="stroke:#181818;stroke-width:1.0;"/><polygon fill="#181818" points="228.46,208.8506,225.855,199.3525,225.2931,204.9814,219.6642,204.4196,228.46,208.8506" style="stroke:#181818;stroke-width:1.0;"/></g><!--link corpus_int_technology to cross_tca_technology--><g id="link_corpus_int_technology_cross_tca_technology"><path d="M319.21,255.1106 C377.61,272.9606 452.7818,295.9274 506.8518,312.4474 " fill="none" id="corpus_int_technology-to-cross_tca_technology" style="stroke:#181818;stroke-width:1.0;"/><polygon fill="#181818" points="512.59,314.2006,505.1516,307.7454,507.8082,312.7396,502.814,315.3963,512.59,314.2006" style="stroke:#181818;stroke-width:1.0;"/></g><!--link corpus_tca to cross_tca_technology--><g id="link_corpus_tca_cross_tca_technology"><path d="M764.4,255.1106 C719.34,272.9606 662.4888,295.4721 620.7588,311.9921 " fill="none" id="corpus_tca-to-cross_tca_technology" style="stroke:#181818;stroke-width:1.0;"/><polygon fill="#181818" points="615.18,314.2006,625.0205,314.607,619.829,312.3602,622.0758,307.1687,615.18,314.2006" style="stroke:#181818;stroke-width:1.0;"/></g><!--link cross_tca_technology to corpus_technology--><g id="link_cross_tca_technology_corpus_technology"><path d="M570.5,351.5806 C570.5,368.1606 570.5,386.9806 570.5,404.8306 " fill="none" id="cross_tca_technology-to-corpus_technology" style="stroke:#181818;stroke-width:1.0;"/><polygon fill="#181818" points="570.5,410.8306,574.5,401.8306,570.5,405.8306,566.5,401.8306,570.5,410.8306" style="stroke:#181818;stroke-width:1.0;"/></g><!--link openalex to search_subsidies--><g id="link_openalex_search_subsidies"><path d="M712.88,42.5206 C783.88,59.9206 909.4524,90.6925 991.3924,110.7725 " fill="none" id="openalex-to-search_subsidies" style="stroke:#181818;stroke-width:1.0;"/><polygon fill="#181818" points="997.22,112.2006,989.4307,106.1734,992.3637,111.0105,987.5266,113.9435,997.22,112.2006" style="stroke:#181818;stroke-width:1.0;"/></g><!--link search_subsidies to corpus_int_subsidies--><g id="link_search_subsidies_corpus_int_subsidies"><path d="M1063.78,149.6106 C1058.42,166.1806 1052.2455,185.2915 1046.4755,203.1415 " fill="none" id="search_subsidies-to-corpus_int_subsidies" style="stroke:#181818;stroke-width:1.0;"/><polygon fill="#181818" points="1044.63,208.8506,1051.2043,201.5172,1046.1679,204.093,1043.5921,199.0566,1044.63,208.8506" style="stroke:#181818;stroke-width:1.0;"/></g><!--link corpus_int_subsidies to cross_tca_subsidies--><g id="link_corpus_int_subsidies_cross_tca_subsidies"><path d="M1013.04,255.1106 C993.33,273.0106 970.4416,293.7968 952.2516,310.3168 " fill="none" id="corpus_int_subsidies-to-cross_tca_subsidies" style="stroke:#181818;stroke-width:1.0;"/><polygon fill="#181818" points="947.81,314.3506,957.1617,311.2609,951.5114,310.9891,951.7832,305.3387,947.81,314.3506" style="stroke:#181818;stroke-width:1.0;"/></g><!--link corpus_tca to cross_tca_subsidies--><g id="link_corpus_tca_cross_tca_subsidies"><path d="M844.74,255.1106 C864.27,273.0106 886.9273,293.776 904.9473,310.296 " fill="none" id="corpus_tca-to-cross_tca_subsidies" style="stroke:#181818;stroke-width:1.0;"/><polygon fill="#181818" points="909.37,314.3506,905.439,305.3203,905.6844,310.9718,900.0329,311.2172,909.37,314.3506" style="stroke:#181818;stroke-width:1.0;"/></g><!--link cross_tca_subsidies to corpus_subsidies--><g id="link_cross_tca_subsidies_corpus_subsidies"><path d="M928.5,351.5806 C928.5,368.1606 928.5,386.9806 928.5,404.8306 " fill="none" id="cross_tca_subsidies-to-corpus_subsidies" style="stroke:#181818;stroke-width:1.0;"/><polygon fill="#181818" points="928.5,410.8306,932.5,401.8306,928.5,405.8306,924.5,401.8306,928.5,410.8306" style="stroke:#181818;stroke-width:1.0;"/></g><!--SRC=[tLfRRzis57xNho0S37bot51I7pPWWEjuhR4WBcAtHT451YqnDX55z2Wg5mpxx-D5icwKp2Is2omF8dbuUCxvFXvIfACWeca8UZz-h3dV9ByE1dI3OnJXfpFALc0g6aFHkBdf0PI0lCznJi5yD0G3y36YInI14MMRD75Gm0cDGM-64GlMO8xPFIWiayqI9_qGSNIs8doTBiy87Km-VnZF5iBOGjiOa7YJycJ00xG8j2HHrdw1xxYmbmnYn5E6p_WJ1rV3-PVhySqD65vTxDyHlmsKb_aVemo_LbY88OwqlaG91Zq34KfP6vNAu2GYgpLVCOnZ9-SGzFk_bmqMLTLJZCx97abl_t-Y3-CY4EGf7wFXRDoOpONiharfYUxQT2fjcpdLPcljskng7Jd5E5Z7DAAhv_rCyXek-DQa9cXG4nPLJVzuzEbgUZdz-Ft5is3Xx84a0eroz7KocqolQhEmrIpD0wzpKfu94lFog9oj4QD90Xv5b7hLbCR97iMvqTcyorafafqJNnXlICgJNulVADNwfhXBkqkxZa5OIRz2LIJWB5qc92GusLF- -OiajxXW-9Qo-omn12E6lXLzm2o-nmB_BObH710K2QtDXZAkicRsvSDiSZ4Ppwg9ipLKciga1gMUDiMObsIDoTEimrCHnQwKAIpN1VM4AJHDmbegD9IRsL9IQShApWj5aIgNuu_ZgmidneyRjC8Emm57yIh2u1AlS1o2VnmW_W9zj1W_YIrOG0Opch80_nMdIOgYw1aWy8Y5KOvxGEaNh5xGnpYYACHXHcinQ8FOtodcIZd1l5VXjjNA99Ql0HmInF5EayfCdXX3NJ8SYQ4Xu1JG9KSa9l5AlFLlIIGCopgzpPZImpUC1bXaL6yea3yd9DbQo7gqMi8f4mo2tbLwB-m4GYj98rxl_OmO1xx0od3e_El8AHYjmJd03oJ4SO11WD94J4q-8S5h3tKRwUZTJpjUwDMpFb_eFgTCpn8pIV8tokx4tFNxx_hzchhmayOSd5oY1v64c3cdrSLMCbnKQptQXc3uA1GqJvWo4Y7jH2wXzylQDi2bqQmiouwBzoSUtHLUSPW-1M-bzXGqoLM6k-ZDrzRvFecMJl8jOA6tW07cQnAWIA4VppzDnAZB4WLPTsT-dPSeoFHp6lvSepjYIg_SRgbUxykvo9Y0XsOYeAAnuSdYN1_yfrUZyUVv39oNw2Xqcf1AVLrimH9RnP0gOTK-WuUScsDH0gkKG1CbS6VOy7N4vACxE89cZgeZYrNb7Pgu63567t4eLtgsVLrVJx-DB-HfiVBUAlJChvzIVrrGsKwwcFKghxx2WBvFQbA_uoYYZqvcpXX0eUwypbtJbH5ESqmnS_x1KvuHUK93-IvmFPcFhoV3wYwmrMa7KTBfuiflvMexFgTjG-8xfsgwXRBQKETedC4gPz346RJW3BwHCzZE6Tp16Jp42QUJDBTAcciYpRKWpNqZQMuxQUuEqjoZa-PLIVDCf7aMf7bl9Crh9ytRGPfNtzlU7vgz9Q4XULX4ykAkjxSFa-d5v2kudCwgvvoAvZ73WesmO4jOq7GfgyGDJe9d53jDkKaRPjfTwV2-UeMiMYqsdKlv0yF8vBgy-RGELs6qfsuDuZ9AyMyHYV5PI3aNrtrhk8sHzj1PM-pgjnLfk1Dww_16IEQBTucL4_L3JZO69UkC01lcp2Ejg6iEVKdQxE9F_pRLdJiTDfh1ESTSmQvXQt5RDnVtkDkBQzXWtDOjHcWVDpZN49pR6fnxtE0yGt1UQt3USOFp3S7vhS7vJiVoggNd7juBRd68LmlS-5foAyVvJYF56y860TmB0cY30Ev005-7mDqB0jS6WRi3WViw1DvU47Ws2BmT2BpN8V3tWi2tGU3lGE1N4RnaAU_ZpBDhTHkFFzNLRMFBV1QoNF27mGbjS48xdF3jEDr3uNHjSBfsEDstu_GEXTEpmUdPuVJUZjC_54xV1gTlXzDln_cYdMZ_LuZwFcI-HjIF6Jii6IuJBzY63W4IMe645Y3X7a2wXm7fMe5qBK2wUm3f7GQaPmNIim3fxG6aVnYGlXL8tmAattN1p_vEGVMZn67ArvIPFZP2sJ-Xg_fpkY61IPtdNvRcjxhn4sUY3f3se7HnPbMhKQQVUMi0UhhiISaA2oZgALkCarjbBQi8sLA03H5xtbRaVymH2zL3rWaB8fmLiasZ2AlWad9TzTnlQ2pzRMjA6dD6exmK4Y4d_3ahHFkM2Flo8Uiq2iNywqAs6Rh7-YbQQ_o4LeALh1GI8ZyW4aXmKHFI22rnf9-Y5TCGguVw0JYuaucMbLA2MI9CwaAsio-4ib98_avnYlLJj8gFghOrzV62CAYVfKyPib98n5LQVMIQbOL4p5PUw_q7]--></g></svg>