<?xml version="1.0" encoding="us-ascii" standalone="no"?><svg xmlns="http://www.w3.org/2000/svg" xmlns:xlink="http://www.w3.org/1999/xlink" contentStyleType="text/css" height="551px" preserveAspectRatio="none" style="width:1237px;height:551px;background:#FFFFFF;" version="1.1" viewBox="0 0 1237 551" width="1237px" zoomAndPan="magnify"><defs/><g><!--cluster Legend--><g id="cluster_Legend"><rect fill="none" height="235.96" rx="2.5" ry="2.5" style="stroke:#181818;stroke-width:1.0;" width="430" x="7" y="7"/><text fill="#000000" font-family="sans-serif" font-size="14" font-weight="bold" lengthAdjust="spacing" textLength="51" x="196.5" y="22.5352">Legend</text></g><!--entity External Source\nusually a website--><g id="elem_External Source\nusually a website"><path d="M68.4539,50.5569 C71.7812,43.4909 77.9473,43.9516 81.7356,50.0932 C85.5395,43.5527 91.1879,43.0701 94.8679,50.2121 C99.7584,43.3677 104.2548,44.335 108.2466,51.0958 C111.584,45.4771 116.9454,45.822 120.6443,50.6675 C123.7535,44.8992 130.0243,43.9173 133.998,49.6651 C137.8415,43.9589 142.5756,44.2453 146.0847,50.0172 C150.5971,44.1063 155.6068,43.7081 159.1951,50.939 C163.2304,44.2992 168.5763,45.378 172.5498,51.0063 C176.117,44.4776 182.3042,42.8989 186.6916,50.1654 C191.0519,44.919 196.4065,44.6485 199.1706,51.7752 C203.7125,54.8815 203.5554,59.5371 198.9703,62.4725 C206.1534,65.9031 206.1969,70.6836 200.5167,75.6264 C204.3068,79.1241 203.8009,82.8159 199.4309,85.4076 C204.9932,89.1901 204.1221,94.0592 198.732,97.1922 C195.84,103.0021 189.8779,103.7423 186.2592,97.9751 C182.0506,103.6948 178.0766,105.4613 173.3101,98.547 C169.8428,106.0106 165.5639,107.2209 159.7192,100.889 C156.4384,106.5309 150.3101,106.2887 146.8396,101.1148 C142.6742,107.2067 138.7741,107.2602 134.6392,101.0844 C130.162,107.0024 124.2446,106.3505 120.6091,100.113 C117.1543,105.7443 110.8838,105.9763 107.0126,100.6288 C103.7962,105.6336 98.5902,106.1465 95.9677,100.0386 C90.6881,106.9306 85.9869,105.2155 82.037,98.661 C77.9867,104.9325 72.6738,102.7592 69.7509,97.4636 C63.2678,96.5449 60.6531,91.3738 65.2265,86.0661 C58.0499,83.9121 56.9222,79.6761 61.497,73.9152 C58.0741,68.9875 59.6252,64.647 65.4111,63.031 C59.9524,58.1734 61.6432,52.4216 68.4539,50.5569 " fill="#F1F1F1" style="stroke:#181818;stroke-width:0.5;"/><text fill="#000000" font-family="sans-serif" font-size="14" lengthAdjust="spacing" textLength="108" x="75" y="70.5352">External Source</text><text fill="#000000" font-family="sans-serif" font-size="14" lengthAdjust="spacing" textLength="116" x="75" y="87.0234">usually a website</text></g><!--entity Downloaded Corpus\nusually parquet dataset--><g id="elem_Downloaded Corpus\nusually parquet dataset"><path d="M241,52.5 C241,42.5 331,42.5 331,42.5 C331,42.5 421,42.5 421,52.5 L421,94.4766 C421,104.4766 331,104.4766 331,104.4766 C331,104.4766 241,104.4766 241,94.4766 L241,52.5 " fill="#90EE90" style="stroke:#181818;stroke-width:0.5;"/><path d="M241,52.5 C241,62.5 331,62.5 331,62.5 C331,62.5 421,62.5 421,52.5 " fill="none" style="stroke:#181818;stroke-width:0.5;"/><text fill="#000000" font-family="sans-serif" font-size="14" lengthAdjust="spacing" textLength="140" x="251" y="80.0352">Downloaded Corpus</text><text fill="#000000" font-family="sans-serif" font-size="14" lengthAdjust="spacing" textLength="160" x="251" y="96.5234">usually parquet dataset</text></g><!--entity Downloaded Intermediate Corpus\nusually parquet dataset--><g id="elem_Downloaded Intermediate Corpus\nusually parquet dataset"><path d="M22.5,174.98 C22.5,164.98 148,164.98 148,164.98 C148,164.98 273.5,164.98 273.5,174.98 L273.5,216.9566 C273.5,226.9566 148,226.9566 148,226.9566 C148,226.9566 22.5,226.9566 22.5,216.9566 L22.5,174.98 " fill="#F1F1F1" style="stroke:#181818;stroke-width:0.5;"/><path d="M22.5,174.98 C22.5,184.98 148,184.98 148,184.98 C148,184.98 273.5,184.98 273.5,174.98 " fill="none" style="stroke:#181818;stroke-width:0.5;"/><text fill="#000000" font-family="sans-serif" font-size="14" lengthAdjust="spacing" textLength="231" x="32.5" y="202.5152">Downloaded Intermediate Corpus</text><text fill="#000000" font-family="sans-serif" font-size="14" lengthAdjust="spacing" textLength="160" x="32.5" y="219.0034">usually parquet dataset</text></g><!--entity Action done--><g id="elem_Action done"><polygon fill="#F1F1F1" points="308.5,177.72,411.5,177.72,421.5,195.9641,411.5,214.2083,308.5,214.2083" style="stroke:#181818;stroke-width:0.5;"/><text fill="#000000" font-family="sans-serif" font-size="14" lengthAdjust="spacing" textLength="83" x="318.5" y="201.2552">Action done</text></g><!--entity openalex--><g id="elem_openalex"><path d="M853.5768,60.1108 C857.036,52.2446 863.9576,52.7392 868.2156,59.3003 C871.0737,52.3024 876.7631,51.4803 881.1465,57.8218 C884.5666,50.2886 890.9198,50.9831 895.6276,56.3798 C899.7712,50.6695 903.8999,51.0297 907.9009,56.5359 C913.2969,50.2234 919.2735,50.0694 923.4929,57.8387 C927.2154,52.7512 932.1084,52.4684 935.152,58.5475 C944.4005,59.2716 950.0675,64.7427 944.9803,74.3709 C950.0014,83.0175 945.2791,89.5273 935.7572,89.0135 C933.1699,97.0626 926.3544,97.6815 921.7931,90.8682 C918.4142,97.5185 912.9071,97.8753 908.2591,92.2697 C904.5978,99.3579 899.8043,99.9506 894.1841,94.462 C889.9888,100.4532 884.3595,98.0327 882.2245,92.3511 C877.9383,99.2682 871.4454,97.6296 867.9161,91.5197 C863.4807,98.0799 857.6866,96.0613 854.8061,89.9153 C844.358,89.8583 842.4405,82.2151 847.3119,74.6415 C842.2368,66.5813 843.9118,61.8157 853.5768,60.1108 " fill="#F1F1F1" style="stroke:#181818;stroke-width:0.5;"/><a href="https://openalex.org" target="_top" title="https://openalex.org" xlink:actuate="onRequest" xlink:href="https://openalex.org" xlink:show="new" xlink:title="https://openalex.org" xlink:type="simple"><text fill="#0000FF" font-family="sans-serif" font-size="14" lengthAdjust="spacing" text-decoration="underline" textLength="68" x="860" y="78.7852">OpenAlex</text></a></g><!--entity search_tca--><g id="elem_search_tca"><polygon fill="#F1F1F1" points="790.5,177.72,987.5,177.72,997.5,195.9641,987.5,214.2083,790.5,214.2083" style="stroke:#181818;stroke-width:0.5;"/><text fill="#000000" font-family="sans-serif" font-size="14" lengthAdjust="spacing" textLength="86" x="800.5" y="201.2552">Search Term</text><a href="https://ipbes-data.github.io/IPBES_TCA_Corpus/inputs/tca_corpus/search%20terms/nature.txt" target="_top" title="https://ipbes-data.github.io/IPBES_TCA_Corpus/inputs/tca_corpus/search%20terms/nature.txt" xlink:actuate="onRequest" xlink:href="https://ipbes-data.github.io/IPBES_TCA_Corpus/inputs/tca_corpus/search%20terms/nature.txt" xlink:show="new" xlink:title="https://ipbes-data.github.io/IPBES_TCA_Corpus/inputs/tca_corpus/search%20terms/nature.txt" xlink:type="simple"><text fill="#0000FF" font-family="sans-serif" font-size="14" lengthAdjust="spacing" text-decoration="underline" textLength="56" x="890.5" y="201.2552">NATURE</text></a><text fill="#000000" font-family="sans-serif" font-size="14" lengthAdjust="spacing" textLength="4" x="946.5" y="201.2552">&#160;</text><a href="https://ipbes-data.github.io/IPBES_TCA_Corpus/inputs/tca_corpus/search%20terms/tfc.txt" target="_top" title="https://ipbes-data.github.io/IPBES_TCA_Corpus/inputs/tca_corpus/search%20terms/tfc.txt" xlink:actuate="onRequest" xlink:href="https://ipbes-data.github.io/IPBES_TCA_Corpus/inputs/tca_corpus/search%20terms/tfc.txt" xlink:show="new" xlink:title="https://ipbes-data.github.io/IPBES_TCA_Corpus/inputs/tca_corpus/search%20terms/tfc.txt" xlink:type="simple"><text fill="#0000FF" font-family="sans-serif" font-size="14" lengthAdjust="spacing" text-decoration="underline" textLength="27" x="950.5" y="201.2552">TFC</text></a></g><!--entity corpus_tca--><g id="elem_corpus_tca"><path d="M786,296.96 C786,286.96 894,286.96 894,286.96 C894,286.96 1002,286.96 1002,296.96 L1002,322.4483 C1002,332.4483 894,332.4483 894,332.4483 C894,332.4483 786,332.4483 786,322.4483 L786,296.96 " fill="#90EE90" style="stroke:#181818;stroke-width:0.5;"/><path d="M786,296.96 C786,306.96 894,306.96 894,306.96 C894,306.96 1002,306.96 1002,296.96 " fill="none" style="stroke:#181818;stroke-width:0.5;"/><text fill="#000000" font-family="sans-serif" font-size="14" lengthAdjust="spacing" textLength="196" x="796" y="324.4952">TCA Corpus / Global Corpus</text></g><!--entity search_technology--><g id="elem_search_technology"><polygon fill="#F1F1F1" points="456.5,177.72,745.5,177.72,755.5,195.9641,745.5,214.2083,456.5,214.2083" style="stroke:#181818;stroke-width:0.5;"/><text fill="#000000" font-family="sans-serif" font-size="14" lengthAdjust="spacing" textLength="86" x="466.5" y="201.2552">Search Term</text><a href="https://ipbes-data.github.io/IPBES_TCA_Ch2_technology/input/Ch2_technology/technology.txt" target="_top" title="https://ipbes-data.github.io/IPBES_TCA_Ch2_technology/input/Ch2_technology/technology.txt" xlink:actuate="onRequest" xlink:href="https://ipbes-data.github.io/IPBES_TCA_Ch2_technology/input/Ch2_technology/technology.txt" xlink:show="new" xlink:title="https://ipbes-data.github.io/IPBES_TCA_Ch2_technology/input/Ch2_technology/technology.txt" xlink:type="simple"><text fill="#0000FF" font-family="sans-serif" font-size="14" lengthAdjust="spacing" text-decoration="underline" textLength="95" x="556.5" y="201.2552">TECHNOLOGY</text></a><text fill="#000000" font-family="sans-serif" font-size="14" lengthAdjust="spacing" textLength="30" x="655.5" y="201.2552">AND</text><a href="https://ipbes-data.github.io/IPBES_TCA_Ch2_technology/input/Ch2_technology/vision.txt" target="_top" title="https://ipbes-data.github.io/IPBES_TCA_Ch2_technology/input/Ch2_technology/vision.txt" xlink:actuate="onRequest" xlink:href="https://ipbes-data.github.io/IPBES_TCA_Ch2_technology/input/Ch2_technology/vision.txt" xlink:show="new" xlink:title="https://ipbes-data.github.io/IPBES_TCA_Ch2_technology/input/Ch2_technology/vision.txt" xlink:type="simple"><text fill="#0000FF" font-family="sans-serif" font-size="14" lengthAdjust="spacing" text-decoration="underline" textLength="46" x="689.5" y="201.2552">VISION</text></a></g><!--entity corpus_technology--><g id="elem_corpus_technology"><path d="M563,296.96 C563,286.96 640,286.96 640,286.96 C640,286.96 717,286.96 717,296.96 L717,322.4483 C717,332.4483 640,332.4483 640,332.4483 C640,332.4483 563,332.4483 563,322.4483 L563,296.96 " fill="#F1F1F1" style="stroke:#181818;stroke-width:0.5;"/><path d="M563,296.96 C563,306.96 640,306.96 640,306.96 C640,306.96 717,306.96 717,296.96 " fill="none" style="stroke:#181818;stroke-width:0.5;"/><text fill="#000000" font-family="sans-serif" font-size="14" lengthAdjust="spacing" textLength="134" x="573" y="324.4952">Technology Corpus</text></g><!--entity cross_tca_technology--><g id="elem_cross_tca_technology"><polygon fill="#F1F1F1" points="649.5,392.44,828.5,392.44,838.5,410.6841,828.5,428.9283,649.5,428.9283" style="stroke:#181818;stroke-width:0.5;"/><text fill="#000000" font-family="sans-serif" font-size="14" lengthAdjust="spacing" textLength="159" x="659.5" y="415.9752">Cross with TCA Corpus</text></g><!--entity corpus_technology_tca--><g id="elem_corpus_technology_tca"><path d="M650.5,498.93 C650.5,488.93 744,488.93 744,488.93 C744,488.93 837.5,488.93 837.5,498.93 L837.5,524.4183 C837.5,534.4183 744,534.4183 744,534.4183 C744,534.4183 650.5,534.4183 650.5,524.4183 L650.5,498.93 " fill="#90EE90" style="stroke:#181818;stroke-width:0.5;"/><path d="M650.5,498.93 C650.5,508.93 744,508.93 744,508.93 C744,508.93 837.5,508.93 837.5,498.93 " fill="none" style="stroke:#181818;stroke-width:0.5;"/><text fill="#000000" font-family="sans-serif" font-size="14" lengthAdjust="spacing" textLength="167" x="660.5" y="526.4652">Technology TCA Corpus</text></g><!--entity search_subsidies--><g id="elem_search_subsidies"><polygon fill="#F1F1F1" points="1032,177.72,1210,177.72,1220,195.9641,1210,214.2083,1032,214.2083" style="stroke:#181818;stroke-width:0.5;"/><text fill="#000000" font-family="sans-serif" font-size="14" lengthAdjust="spacing" textLength="86" x="1042" y="201.2552">Search Term</text><a href="https://ipbes-data.github.io/IPBES_TCA_Ch5_subsidies_reform/input/ch_5_subsidies_reform/government_financial_support.txt" target="_top" title="https://ipbes-data.github.io/IPBES_TCA_Ch5_subsidies_reform/input/ch_5_subsidies_reform/government_financial_support.txt" xlink:actuate="onRequest" xlink:href="https://ipbes-data.github.io/IPBES_TCA_Ch5_subsidies_reform/input/ch_5_subsidies_reform/government_financial_support.txt" xlink:show="new" xlink:title="https://ipbes-data.github.io/IPBES_TCA_Ch5_subsidies_reform/input/ch_5_subsidies_reform/government_financial_support.txt" xlink:type="simple"><text fill="#0000FF" font-family="sans-serif" font-size="14" lengthAdjust="spacing" text-decoration="underline" textLength="68" x="1132" y="201.2552">SUBSIDIES</text></a></g><!--entity corpus_subsidies--><g id="elem_corpus_subsidies"><path d="M1046.5,296.96 C1046.5,286.96 1116,286.96 1116,286.96 C1116,286.96 1185.5,286.96 1185.5,296.96 L1185.5,322.4483 C1185.5,332.4483 1116,332.4483 1116,332.4483 C1116,332.4483 1046.5,332.4483 1046.5,322.4483 L1046.5,296.96 " fill="#F1F1F1" style="stroke:#181818;stroke-width:0.5;"/><path d="M1046.5,296.96 C1046.5,306.96 1116,306.96 1116,306.96 C1116,306.96 1185.5,306.96 1185.5,296.96 " fill="none" style="stroke:#181818;stroke-width:0.5;"/><text fill="#000000" font-family="sans-serif" font-size="14" lengthAdjust="spacing" textLength="119" x="1056.5" y="324.4952">Subsidies Corpus</text></g><!--entity cross_tca_subsidies--><g id="elem_cross_tca_subsidies"><polygon fill="#F1F1F1" points="925.5,392.44,1104.5,392.44,1114.5,410.6841,1104.5,428.9283,925.5,428.9283" style="stroke:#181818;stroke-width:0.5;"/><text fill="#000000" font-family="sans-serif" font-size="14" lengthAdjust="spacing" textLength="159" x="935.5" y="415.9752">Cross with TCA Corpus</text></g><!--entity corpus_subsidies_tca--><g id="elem_corpus_subsidies_tca"><path d="M934,498.93 C934,488.93 1020,488.93 1020,488.93 C1020,488.93 1106,488.93 1106,498.93 L1106,524.4183 C1106,534.4183 1020,534.4183 1020,534.4183 C1020,534.4183 934,534.4183 934,524.4183 L934,498.93 " fill="#90EE90" style="stroke:#181818;stroke-width:0.5;"/><path d="M934,498.93 C934,508.93 1020,508.93 1020,508.93 C1020,508.93 1106,508.93 1106,498.93 " fill="none" style="stroke:#181818;stroke-width:0.5;"/><text fill="#000000" font-family="sans-serif" font-size="14" lengthAdjust="spacing" textLength="152" x="944" y="526.4652">Subsidies TCA Corpus</text></g><!--link openalex to search_tca--><g id="link_openalex_search_tca"><path d="M894,97.15 C894,120.46 894,150.27 894,171.49 " fill="none" id="openalex-to-search_tca" style="stroke:#181818;stroke-width:1.0;"/><polygon fill="#181818" points="894,177.49,898,168.49,894,172.49,890,168.49,894,177.49" style="stroke:#181818;stroke-width:1.0;"/></g><!--link search_tca to corpus_tca--><g id="link_search_tca_corpus_tca"><path d="M894,214.42 C894,233.94 894,259.58 894,280.76 " fill="none" id="search_tca-to-corpus_tca" style="stroke:#181818;stroke-width:1.0;"/><polygon fill="#181818" points="894,286.76,898,277.76,894,281.76,890,277.76,894,286.76" style="stroke:#181818;stroke-width:1.0;"/></g><!--link openalex to search_technology--><g id="link_openalex_search_technology"><path d="M844.82,95.06 C789.55,118.18 706.2752,153.0146 653.9452,174.9046 " fill="none" id="openalex-to-search_technology" style="stroke:#181818;stroke-width:1.0;"/><polygon fill="#181818" points="648.41,177.22,658.2565,177.437,653.0227,175.2905,655.1692,170.0567,648.41,177.22" style="stroke:#181818;stroke-width:1.0;"/></g><!--link search_technology to corpus_technology--><g id="link_search_technology_corpus_technology"><path d="M611.31,214.42 C617.25,233.94 625.1345,259.8395 631.5745,281.0195 " fill="none" id="search_technology-to-corpus_technology" style="stroke:#181818;stroke-width:1.0;"/><polygon fill="#181818" points="633.32,286.76,634.5288,276.9856,631.8655,281.9762,626.8748,279.3129,633.32,286.76" style="stroke:#181818;stroke-width:1.0;"/></g><!--link corpus_technology to cross_tca_technology--><g id="link_corpus_technology_cross_tca_technology"><path d="M663.34,332.91 C682.14,350.81 703.8735,371.4938 721.2335,388.0138 " fill="none" id="corpus_technology-to-cross_tca_technology" style="stroke:#181818;stroke-width:1.0;"/><polygon fill="#181818" points="725.58,392.15,721.8177,383.0481,721.9579,388.7032,716.3028,388.8434,725.58,392.15" style="stroke:#181818;stroke-width:1.0;"/></g><!--link corpus_tca to cross_tca_technology--><g id="link_corpus_tca_cross_tca_technology"><path d="M860.34,332.91 C833.21,350.81 800.6076,372.3249 775.5776,388.8449 " fill="none" id="corpus_tca-to-cross_tca_technology" style="stroke:#181818;stroke-width:1.0;"/><polygon fill="#181818" points="770.57,392.15,780.2848,390.5308,774.743,389.3958,775.8781,383.854,770.57,392.15" style="stroke:#181818;stroke-width:1.0;"/></g><!--link cross_tca_technology to corpus_technology_tca--><g id="link_cross_tca_technology_corpus_technology_tca"><path d="M744,429.38 C744,445.96 744,464.78 744,482.63 " fill="none" id="cross_tca_technology-to-corpus_technology_tca" style="stroke:#181818;stroke-width:1.0;"/><polygon fill="#181818" points="744,488.63,748,479.63,744,483.63,740,479.63,744,488.63" style="stroke:#181818;stroke-width:1.0;"/></g><!--link openalex to search_subsidies--><g id="link_openalex_search_subsidies"><path d="M937.64,97.15 C982.4,120.39 1045.765,153.3052 1086.655,174.5352 " fill="none" id="openalex-to-search_subsidies" style="stroke:#181818;stroke-width:1.0;"/><polygon fill="#181818" points="1091.98,177.3,1085.8356,169.6028,1087.5425,174.996,1082.1493,176.7029,1091.98,177.3" style="stroke:#181818;stroke-width:1.0;"/></g><!--link search_subsidies to corpus_subsidies--><g id="link_search_subsidies_corpus_subsidies"><path d="M1124.44,214.42 C1122.69,233.94 1120.3961,259.604 1118.4961,280.784 " fill="none" id="search_subsidies-to-corpus_subsidies" style="stroke:#181818;stroke-width:1.0;"/><polygon fill="#181818" points="1117.96,286.76,1122.7481,278.1534,1118.4067,281.78,1114.7801,277.4386,1117.96,286.76" style="stroke:#181818;stroke-width:1.0;"/></g><!--link corpus_subsidies to cross_tca_subsidies--><g id="link_corpus_subsidies_cross_tca_subsidies"><path d="M1094.69,332.67 C1077.35,350.55 1057.3673,371.163 1041.2673,387.763 " fill="none" id="corpus_subsidies-to-cross_tca_subsidies" style="stroke:#181818;stroke-width:1.0;"/><polygon fill="#181818" points="1037.09,392.07,1046.2273,388.3943,1040.5711,388.4808,1040.4846,382.8246,1037.09,392.07" style="stroke:#181818;stroke-width:1.0;"/></g><!--link corpus_tca to cross_tca_subsidies--><g id="link_corpus_tca_cross_tca_subsidies"><path d="M922.28,332.91 C945.06,350.81 971.9317,371.9236 992.9617,388.4436 " fill="none" id="corpus_tca-to-cross_tca_subsidies" style="stroke:#181818;stroke-width:1.0;"/><polygon fill="#181818" points="997.68,392.15,993.0735,383.4448,993.7481,389.0613,988.1316,389.7359,997.68,392.15" style="stroke:#181818;stroke-width:1.0;"/></g><!--link cross_tca_subsidies to corpus_subsidies_tca--><g id="link_cross_tca_subsidies_corpus_subsidies_tca"><path d="M1020,429.38 C1020,445.96 1020,464.78 1020,482.63 " fill="none" id="cross_tca_subsidies-to-corpus_subsidies_tca" style="stroke:#181818;stroke-width:1.0;"/><polygon fill="#181818" points="1020,488.63,1024,479.63,1020,483.63,1016,479.63,1020,488.63" style="stroke:#181818;stroke-width:1.0;"/></g><!--SRC=[hLLRQzim57xFhn0Ueq-DHs4lUnYaITO5IZBcT32wO1Jvn15J94-IsvIn_xuZoOvoSTUEDW_dykdeEpuN52PKNP3azdPjRMK-fAcgG581sxxI9PcXCq1diKW8DQGzw_Keirn9acH0DLkJEUWDYHoyMe8vBwYb_PBRTRtiSvLElboEitm-7EH3fQlQf5nMjJMfPJHd0J6UxUt5Eujy9fNKrXhwTcl9T32_-JfUB5u_YLqnds7-QTXK6G9olD9px4jgW2H8IG8bIScLK4ig6j_V2Tpk3daZUBcsfGQGlRPXvFpyupvlDFr9lFtIpgulSWjiBPLGvKCeFZq2endg7Wy_JsVNiwllsDt1TFIwoUwumMfyec-JR3AR7lLu5xdVwXtOrU5ue-tKK2jZo3r-8ObJ2dVSYMlhaucEBnudUzvaOv8Jv63ECUu42N5TtxstOe_7T83TcSEolNZTtkUcNXfUS32vXfNIcsOFiFYEirBTWPORa3PVSKaburHWL5KfRVsIP3UNsMGq6MU7Ux8ZsfjUrc8TWuln_xCa_yxIlIAnnETiICnm3EnFAKOT0qUJFmayNOwza5EiCscp6MVaUdmrdevw6fYbiXH0hg44MP3VFO8_5luunbjyHh5EagbQC_WXQrDJ8Hu89VU0Z1OIukDZIqVgNWf52oYQViPB5TM_Qh0-s81D3XhwACj4kgSS2aujF4dfQTgj60HTA0b9xuyh-l357zHshNJNXb7VfkFukQeuwmgteQjdkypODuqseI63ZuM6DOGf7MJhfIG9Ed48Ji86wJnj-SgpDGPYIrNBWkg7dO4OexhmmjbSCvnfKCvNGe3_EBDl-vDDXGt2V3lBez9g9LgD2EBSFZGA_HL7VYUShKG1kb7ErtG3GQAtXYqjiIkDHeIxaM8b42r41Ls2218zgGhm0ksAif_OZLOx1BH1og2ShnK3V08QZGYkHGr1eXVNV6SXQYmI1kazfLsMHYDI6s1k-esE24whjPA_]--></g></svg>