<?xml version="1.0" encoding="us-ascii" standalone="no"?><svg xmlns="http://www.w3.org/2000/svg" xmlns:xlink="http://www.w3.org/1999/xlink" contentStyleType="text/css" height="473px" preserveAspectRatio="none" style="width:948px;height:473px;background:#FFFFFF;" version="1.1" viewBox="0 0 948 473" width="948px" zoomAndPan="magnify"><defs/><g><!--cluster Legend--><g id="cluster_Legend"><rect fill="none" height="460.86" rx="2.5" ry="2.5" style="stroke:#181818;stroke-width:1.0;" width="935" x="7" y="7"/><text fill="#000000" font-family="sans-serif" font-size="14" font-weight="bold" lengthAdjust="spacing" textLength="51" x="449" y="22.5352">Legend</text></g><!--entity Source in the Cloud\n- - -\n- OpenAlex\n- ...--><g id="elem_Source in the Cloud\n---\n- OpenAlex\n- ..."><path d="M33.647,53.877 C36.2955,48.1936 42.0881,46.7654 45.7525,52.8302 C48.7439,46.4546 54.0091,46.9561 57.6728,52.1368 C60.7878,46.4647 66.4943,45.4909 69.8536,51.8904 C72.857,46.8161 77.8639,46.3354 81.3315,51.363 C84.182,43.8423 89.9059,42.2765 95.3293,48.7983 C98.6646,42.1914 103.2321,41.8609 107.6611,47.716 C112.8684,42.3703 117.3497,43.5181 120.3499,50.0698 C124.2174,43.5891 129.7069,44.7745 132.6284,50.985 C136.4025,46.1594 141.1143,45.7203 144.2008,51.7199 C148.7683,45.3675 152.8624,47.1518 156.5214,52.6633 C160.1022,47.029 166.3384,46.6768 169.9133,52.6701 C174.2286,47.6154 177.5452,48.9069 180.9076,53.7307 C187.7738,55.2419 190.2676,60.5657 184.8293,66.0074 C191.2626,68.5707 192.8203,72.711 187.6023,77.9742 C193.6541,80.8065 194.081,86.6506 188.8607,90.6058 C192.8718,94.5983 191.8898,99.8695 186.3905,101.7549 C192.1059,106.1562 189.5934,111.6826 184.0976,113.9814 C187.9253,118.4265 186.9196,122.9671 181.3275,125.0562 C178.6267,130.4846 174.5669,131.9901 170.1664,126.8515 C166.8837,133.3622 162.0381,134.5223 157.0714,128.6295 C154.1203,135.5516 147.8961,134.7238 144.1205,129.5094 C140.4175,136.5699 136.1824,136.9223 131.2243,130.7308 C128.4669,138.051 123.1752,138.0644 118.4988,132.6482 C115.9568,138.6875 111.0982,141.023 106.0782,135.255 C101.1841,139.147 96.9228,138.9783 95.2602,132.03 C91.4974,138.5436 85.9164,138.6951 82.2517,131.9339 C77.3918,137.118 73.4155,136.0086 69.8015,130.4852 C64.7427,135.0813 60.5373,133.253 58.0734,127.5346 C55.222,133.6431 49.3271,134.3251 45.8265,128.1836 C40.164,134.7758 34.2508,132.7811 31.7458,125.0743 C26.4267,122.077 24.6566,118.8033 29.7072,113.9121 C22.6624,111.8264 22.3194,107.5645 26.1447,102.1785 C20.1971,98.818 19.3057,94.19 24.8032,89.6081 C21.4779,85.0238 21.9293,80.7219 28.0476,79.0355 C22.4649,73.5197 22.0646,69.0215 29.8904,65.3054 C25.0341,60.137 26.969,55.254 33.647,53.877 " fill="#FFC0CB" style="stroke:#181818;stroke-width:0.5;"/><text fill="#000000" font-family="sans-serif" font-size="14" lengthAdjust="spacing" textLength="135" x="38.5" y="73.7752">Source in the Cloud</text><line style="stroke:#181818;stroke-width:1.0;" x1="24.5" x2="187.5" y1="76.7283" y2="76.7283"/><text fill="#000000" font-family="sans-serif" font-size="14" lengthAdjust="spacing" textLength="80" x="38.5" y="94.2634">- OpenAlex</text><text fill="#000000" font-family="sans-serif" font-size="14" lengthAdjust="spacing" textLength="24" x="38.5" y="110.7517">- ...</text></g><!--entity Downloaded Corpus\n- - -\n**Format**: parquet dataset--><g id="elem_Downloaded Corpus\n---\n**Format**: parquet dataset"><path d="M223.5,63.99 C223.5,53.99 317,53.99 317,53.99 C317,53.99 410.5,53.99 410.5,63.99 L410.5,113.9666 C410.5,123.9666 317,123.9666 317,123.9666 C317,123.9666 223.5,123.9666 223.5,113.9666 L223.5,63.99 " fill="#FFFF00" style="stroke:#181818;stroke-width:0.5;"/><path d="M223.5,63.99 C223.5,73.99 317,73.99 317,73.99 C317,73.99 410.5,73.99 410.5,63.99 " fill="none" style="stroke:#181818;stroke-width:0.5;"/><text fill="#000000" font-family="sans-serif" font-size="14" lengthAdjust="spacing" textLength="140" x="233.5" y="91.5252">Downloaded Corpus</text><path d="M223.5,89.4783 C223.5,99.4783 317,99.4783 317,99.4783 C317,99.4783 410.5,99.4783 410.5,89.4783 " fill="none" style="stroke:#181818;stroke-width:1.0;"/><text fill="#000000" font-family="sans-serif" font-size="14" font-weight="bold" lengthAdjust="spacing" textLength="51" x="233.5" y="112.0134">Format</text><text fill="#000000" font-family="sans-serif" font-size="14" lengthAdjust="spacing" textLength="116" x="284.5" y="112.0134">: parquet dataset</text></g><!--entity Downloaded Intermediate Corpus\n- - -\n**Format**: parquet dataset--><g id="elem_Downloaded Intermediate Corpus\n---\n**Format**: parquet dataset"><path d="M445.5,63.99 C445.5,53.99 571,53.99 571,53.99 C571,53.99 696.5,53.99 696.5,63.99 L696.5,113.9666 C696.5,123.9666 571,123.9666 571,123.9666 C571,123.9666 445.5,123.9666 445.5,113.9666 L445.5,63.99 " fill="#F1F1F1" style="stroke:#181818;stroke-width:0.5;"/><path d="M445.5,63.99 C445.5,73.99 571,73.99 571,73.99 C571,73.99 696.5,73.99 696.5,63.99 " fill="none" style="stroke:#181818;stroke-width:0.5;"/><text fill="#000000" font-family="sans-serif" font-size="14" lengthAdjust="spacing" textLength="231" x="455.5" y="91.5252">Downloaded Intermediate Corpus</text><path d="M445.5,89.4783 C445.5,99.4783 571,99.4783 571,99.4783 C571,99.4783 696.5,99.4783 696.5,89.4783 " fill="none" style="stroke:#181818;stroke-width:1.0;"/><text fill="#000000" font-family="sans-serif" font-size="14" font-weight="bold" lengthAdjust="spacing" textLength="51" x="455.5" y="112.0134">Format</text><text fill="#000000" font-family="sans-serif" font-size="14" lengthAdjust="spacing" textLength="116" x="506.5" y="112.0134">: parquet dataset</text></g><!--entity Action related to corpus\n- - -\n- Search Terms\n- Crossing corpuses\n- ...--><g id="elem_Action related to corpus\n---\n- Search Terms\n- Crossing corpuses\n- ..."><polygon fill="#F1F1F1" points="731.5,42,916.5,42,926.5,88.9766,916.5,135.9531,731.5,135.9531" style="stroke:#181818;stroke-width:0.5;"/><text fill="#000000" font-family="sans-serif" font-size="14" lengthAdjust="spacing" textLength="165" x="741.5" y="65.5352">Action related to corpus</text><line style="stroke:#181818;stroke-width:1.0;" x1="732.5" x2="925.5" y1="68.4883" y2="68.4883"/><text fill="#000000" font-family="sans-serif" font-size="14" lengthAdjust="spacing" textLength="105" x="741.5" y="86.0234">- Search Terms</text><text fill="#000000" font-family="sans-serif" font-size="14" lengthAdjust="spacing" textLength="139" x="741.5" y="102.5117">- Crossing corpuses</text><text fill="#000000" font-family="sans-serif" font-size="14" lengthAdjust="spacing" textLength="24" x="741.5" y="119">- ...</text></g><!--entity Analysis related process\n- - -\n- extract numbers\n- ...--><g id="elem_Analysis related process\n---\n- extract numbers\n- ..."><polygon fill="#F1F1F1" points="22.5,224.69,217.5,224.69,227.5,263.4224,217.5,302.1548,22.5,302.1548,32.5,263.4224" style="stroke:#181818;stroke-width:0.5;"/><text fill="#000000" font-family="sans-serif" font-size="14" lengthAdjust="spacing" textLength="165" x="42.5" y="248.2252">Analysis related process</text><line style="stroke:#181818;stroke-width:1.0;" x1="23.5" x2="226.5" y1="251.1783" y2="251.1783"/><text fill="#000000" font-family="sans-serif" font-size="14" lengthAdjust="spacing" textLength="125" x="42.5" y="268.7134">- extract numbers</text><text fill="#000000" font-family="sans-serif" font-size="14" lengthAdjust="spacing" textLength="24" x="42.5" y="285.2017">- ...</text></g><!--entity Numeric results--><g id="elem_Numeric results"><rect fill="#F1F1F1" height="36.4883" rx="35" ry="35" style="stroke:#181818;stroke-width:0.5;" width="127" x="262.5" y="245.17"/><text fill="#000000" font-family="sans-serif" font-size="14" lengthAdjust="spacing" textLength="107" x="272.5" y="268.7052">Numeric results</text></g><!--entity Result saved as File\n- - -\nFile Format\n- - -\n- tables\n- figures\n- maps\n- ...--><g id="elem_Result saved as File\n---\nFile Format\n---\n- tables\n- figures\n- maps\n- ..."><path d="M425,198.45 L425,328.3797 A2.5,2.5 0 0 0 427.5,330.8797 L574.5,330.8797 A2.5,2.5 0 0 0 577,328.3797 L577,205.95 L567,195.95 L427.5,195.95 A2.5,2.5 0 0 0 425,198.45 " fill="#F1F1F1" style="stroke:#181818;stroke-width:0.5;"/><path d="M567,195.95 L567,203.45 A2.5,2.5 0 0 0 569.5,205.95 L577,205.95 " fill="#F1F1F1" style="stroke:#181818;stroke-width:0.5;"/><text fill="#000000" font-family="sans-serif" font-size="14" lengthAdjust="spacing" textLength="132" x="435" y="219.4852">Result saved as File</text><line style="stroke:#181818;stroke-width:1.0;" x1="426" x2="576" y1="222.4383" y2="222.4383"/><text fill="#000000" font-family="sans-serif" font-size="14" lengthAdjust="spacing" textLength="77" x="435" y="239.9734">File Format</text><line style="stroke:#181818;stroke-width:1.0;" x1="426" x2="576" y1="246.9266" y2="246.9266"/><text fill="#000000" font-family="sans-serif" font-size="14" lengthAdjust="spacing" textLength="53" x="435" y="264.4617">- tables</text><text fill="#000000" font-family="sans-serif" font-size="14" lengthAdjust="spacing" textLength="60" x="435" y="280.95">- figures</text><text fill="#000000" font-family="sans-serif" font-size="14" lengthAdjust="spacing" textLength="49" x="435" y="297.4383">- maps</text><text fill="#000000" font-family="sans-serif" font-size="14" lengthAdjust="spacing" textLength="24" x="435" y="313.9266">- ...</text></g><!--entity Result Data\n- - -\n**Filename**: ...--><g id="elem_Result Data\n---\n**Filename**: ..."><path d="M611.5,235.43 L611.5,291.4066 A2.5,2.5 0 0 0 614,293.9066 L714,293.9066 A2.5,2.5 0 0 0 716.5,291.4066 L716.5,242.93 L706.5,232.93 L614,232.93 A2.5,2.5 0 0 0 611.5,235.43 " fill="#FFFF00" style="stroke:#181818;stroke-width:0.5;"/><path d="M706.5,232.93 L706.5,240.43 A2.5,2.5 0 0 0 709,242.93 L716.5,242.93 " fill="#FFFF00" style="stroke:#181818;stroke-width:0.5;"/><text fill="#000000" font-family="sans-serif" font-size="14" lengthAdjust="spacing" textLength="77" x="621.5" y="256.4652">Result Data</text><line style="stroke:#181818;stroke-width:1.0;" x1="612.5" x2="715.5" y1="259.4183" y2="259.4183"/><text fill="#000000" font-family="sans-serif" font-size="14" font-weight="bold" lengthAdjust="spacing" textLength="65" x="621.5" y="276.9534">Filename</text><text fill="#000000" font-family="sans-serif" font-size="14" lengthAdjust="spacing" textLength="20" x="686.5" y="276.9534">: ...</text></g><!--entity Result Figure\n- - -\n**Filename**: ...--><g id="elem_Result Figure\n---\n**Filename**: ..."><path d="M70,393.38 L70,449.3566 A2.5,2.5 0 0 0 72.5,451.8566 L177.5,451.8566 A2.5,2.5 0 0 0 180,449.3566 L180,400.88 L170,390.88 L72.5,390.88 A2.5,2.5 0 0 0 70,393.38 " fill="#F08080" style="stroke:#181818;stroke-width:0.5;"/><path d="M170,390.88 L170,398.38 A2.5,2.5 0 0 0 172.5,400.88 L180,400.88 " fill="#F08080" style="stroke:#181818;stroke-width:0.5;"/><text fill="#000000" font-family="sans-serif" font-size="14" lengthAdjust="spacing" textLength="90" x="80" y="414.4152">Result Figure</text><line style="stroke:#181818;stroke-width:1.0;" x1="71" x2="179" y1="417.3683" y2="417.3683"/><text fill="#000000" font-family="sans-serif" font-size="14" font-weight="bold" lengthAdjust="spacing" textLength="65" x="80" y="434.9034">Filename</text><text fill="#000000" font-family="sans-serif" font-size="14" lengthAdjust="spacing" textLength="20" x="145" y="434.9034">: ...</text></g><!--entity Result Map\n- - -\n**Filename**: ...--><g id="elem_Result Map\n---\n**Filename**: ..."><path d="M214.5,393.38 L214.5,449.3566 A2.5,2.5 0 0 0 217,451.8566 L317,451.8566 A2.5,2.5 0 0 0 319.5,449.3566 L319.5,400.88 L309.5,390.88 L217,390.88 A2.5,2.5 0 0 0 214.5,393.38 " fill="#E0FFFF" style="stroke:#181818;stroke-width:0.5;"/><path d="M309.5,390.88 L309.5,398.38 A2.5,2.5 0 0 0 312,400.88 L319.5,400.88 " fill="#E0FFFF" style="stroke:#181818;stroke-width:0.5;"/><text fill="#000000" font-family="sans-serif" font-size="14" lengthAdjust="spacing" textLength="75" x="224.5" y="414.4152">Result Map</text><line style="stroke:#181818;stroke-width:1.0;" x1="215.5" x2="318.5" y1="417.3683" y2="417.3683"/><text fill="#000000" font-family="sans-serif" font-size="14" font-weight="bold" lengthAdjust="spacing" textLength="65" x="224.5" y="434.9034">Filename</text><text fill="#000000" font-family="sans-serif" font-size="14" lengthAdjust="spacing" textLength="20" x="289.5" y="434.9034">: ...</text></g><!--SRC=[xLlhRziu4l_klu9mSUXT0DlnAosARWwkawRffacsTblq4GYoHDlQog9MZpJkOV_t7PAII4gah1GvRt4uVz237CxyPZXyp51sV9AwgFqyzhxZPuFHyUVFwoG9usUz7WbnOFluhakY5Rg2bmcytDoqaHsZl0uz2htWQwlr6Csd4zH3PpvPs3wQaYXCurQ4dSGELZv6RKqrOxGWTrRYsEW_BGG_sqay4g3s3DkHiqPp76sG0EI52nntN3knkoilMQUBhaTwvzSlJcSMiBSurvuNX6aIzu2fvV2Ic77xn-0m0NvnBx2JDCBTv2v1bvFvkxUdDpTeSddoy8AIfSEap5zECxDn0gemKvTAMDWnc8UpH6I9c1WqZ-mWNf9eOoVUBKRJDPWHeqaSupZUu23v4dJWzoNGc9LLVGaE3iu3nqzZxzPBjWS7pu07ThvYbzRCGknuIy_9QYv9ajSob5mRrYsFjjZtoJU6jkZpJkUuh8buHHsNV0k0Gd1X58_H3Bo1HB7IqQTtIGJFakrTuiJT5I7WDLs7R7fn667RZTSOWwtTNl_Jz8KrImRptrBhsyLmw_UzooSVxhwFNvw-FRlxsZdxD3cq1kJCUVlci8TTBtcqyjnV1lt3e_7JmoVz74JM7vYBjs9UMe2LB92hOo8LVKZx8cClcr5ge9XJmx1ikxAinoYCl8sLaD1pM6dcUDt8vMOD8-A0XmYxNWEz7MtHd3LXiC2UeHrXgyHArbi7gQxPqgD3N9M5Ji0mXI- -18h0tc3gRcOT63xAh2n5CPm1IO5Knw2LsI_NZDpYo4gy3RROAA_OxvhBoFiJKNf4wPbQYXs19UTq3oDMsd0BAjBckJIj4SsA22FAKhGML0WKyrK0Qam7b2kOI6lnlsGapJJe_ZDqbp2RXS7gNnebk3IkouMtMYSmtTb-8Rs9Ce95IIVezv14T4fgfD-r8B-VhbevPhqf-KCeh-EJZuWmNVYUOvSmrKuk-U2u5ashmmButdjOLDfa4uiafp1ttGJJH2Lfhf6awYSQcK2TPSg0JVQi-f9MgJeVqZFMEq-1QvVVD52jwZ9JaWP9v67zKbxKAYkiavSsMMEhnEegguh862cDj2kjIb5QQwio7oEbRETmA51L1uDHUpqaSxEgxwXIjPvZKaFuYzbsMYYgf-WifpXhGO0sTXZlrECD4EqU0GLJymYWqcJNtzg1yFmQXUIshTQVDBgPWk_5ch16BcV2epG8l61bzV_t8vh_ZWW7BCfaJ2UpqqhOPD7gNR4JdI7M0zJXlPQvajnJfX192eGqOTBp9GaI64m-YNw9i7jyS20tE3WenKuCQfC0IkXKAjE4KfoMkUGSE-i0mAoskd2xN2c2RL7p41ww7aWSUU_sIeNYaVlEwVJLvTN5rTd7UxjG0s6tNWpQC47lpsVdLvSb5oeeIqwKQ0sM6TuBadBBt6hJYC0Qy0tGSh-Jsj8QrcT6eMRF5VsN-MgbGn_AXyqkB2JkT69LmKffsP4rzjJMY7OcMygRY5ewJKLbU8acV1KpxBWQxOVdsbXHRBVqQbInxMhva3jaqxPOxmWro4oRP1NwpxfNbjIjtpBlqhV2K1jpXO2ERqQsEv8HpJQOz_KiOzCVsclkL4sxwQptC2sXQGig6PijaxDq4NkkfzszbUkAHJ8kAlw_YoijmMDX72l2D4MTBSGmuslgLdJq1JHb3SCXi0F7itsW2caQX86OlNinEpyvFvsf2tN1oBZeg1Ix5jKnBAgYk-CafVVCWyjky6DBwy61TXaLhYIxTbc7IkQtKAv8dWTqJe75smPBR6El77nJWo8mkKGvoIYpG9nIM37j2TLq5Q0Y73Sr4TQkIaCSYve2ht3GygxcloljQCuE2dCZYDgk4z-gqsOLMjQnftSm3g28GHISp9RHWwnhcUSBAyPvY-FKJs93bj2ecPmNLC38JcK0LCu7Ac0beqwAvg0tbYDiSteyX9dUzYMVqwJ70pdpKZMJ2MrZ1c1dBGoZZMiLBLbQ8zYGIZSGLurlqeNt0iDlVGvmsWi9B0furNF89eGsxesqe6goAK9xca4nfr7k9yMKdLOKOTaIoK2QVCiF6KZbM-EhLA4O5pb9pJbERXlrRANggcpdzeDUQcWhTqsZevqw_JG-geerksU9hcfu3Nx9AQMTjDPnw8i5XJVP1dwN0VZ-VOUFDXPQuwUgMjcsF3OTfDpVK3d7reupbVhTVRFJb8PBzuvs3tgkKjtPLwNMHuu6Knl0_wHnOsNwCuIDkvGjizj7q7XFhwfVZVSHCTOxrivbnhm4_pm75_NBwKuLgtnOG2n5lnFNzIWajd4gubfkRhkeiufi7jJjCnnsrdthiC-F0jPzTDXN0qHUdVMQY0yZQYeH94fK-mCz4A076j232kWIti6UyGu5tg46xx2HaOTx1ZqIe4SQqAD6e4Tx1ZqMeCSQqED6eCTx1dqaG1zfG1yr0dtKsYVgV0HMXjzWDzZ1Nf4EnHmtrCnnmqPpt73FSznGp753pHmtrCrnEj23FOCU2j133UXX8z33FOCU2T0Z3UXH8z2ZFOCU2z1Z3UXn8z3ZFOC-4g2FDA2F6e4- -hkcZv5c-XWrcZv6Vz_qCT9C7wD6qmUZ-hCbADAGvcJr-rPbtpk_Ehb27HefBNnCFx1tigYeUBVww564tKQxtVBtwl2UqiG5_LOz_DMQF_sz_sP4va5dDVl-EXrzUZg_-EFtjrSVX-bs-VhmtOVlgzchk_SnkYOG8cpHUH0d4MCGGsXm5RAOGRKGuOMwysyDnO-Z__N9v3AoWe_U6yj-V_AwxozVVLWDl6qqlCPNPoySD94_fSz4s-8RVpssZ0124QbF4k8IRlBFhUAVACyNnxIhdlSMnyzxjF2u1R5LguDaYkdQ3g6BKV_VCjrDYnxzNPoUdLwUj0ByBRHNM19tWLSuoBlNuN-0cP4qSZ3o0fIi8MgcXLairod-_4AVkzrkE_lNYteISWB1bqzi5vGe7IEzPF_ZO86W7VsHueIrYd7ILg9NBQlpW3emTZqxmStvAZq_uVS8-y331LjdFLEe9qT_z9rzq-85guoEfUYOtcg6eJZJo3bdDGNVxBjB5AIR1OvKBZ5u0NGAQb-2lqMU0qpOmKXRYhBvMGcAxLjW3Yv6G-gCENr4NFz275ZFvrYNHMQH1UwAO8MrCId1U_cZw1obMKq6YJVK982Anc_iS6TB6khJ4SBSMFtsTP8cQ_eDUlKh9PjzhrYcp_wDKILF-EUDZoiVyDfS0ZyrpBXoCXBnQ_xMGsr-RzEI5JkTf5Vw5YNUad7B7g1iGHEsz1yY-GEKENRaiWjzzY873CLlz9tuFdRuP_RICwlPX2J0x5Ecx8cL1ab4_FmE9JIBd6op6xopZg0N-any5oOEVgFlaKrpYFGARsjyPw_0AjaTIZmw4a4JB9wWrBSNsETNU0k8Yza5daFR-KezFBlJ4XW4m9BVw7isah8xbC0WJZ6_mfkOi8edA8qJOCYlx8sFe-mE9J1WsSU3sLsKG6_bJ-s_0000]--></g></svg>