<svg xmlns="http://www.w3.org/2000/svg" xmlns:xlink="http://www.w3.org/1999/xlink" contentStyleType="text/css" height="471px" preserveAspectRatio="none" style="width:970px;height:471px;background:#FFFFFF;" version="1.1" viewBox="0 0 970 471" width="970px" zoomAndPan="magnify"><defs/><g><!--cluster Legend--><g id="cluster_Legend"><rect fill="none" height="458.56" rx="2.5" ry="2.5" style="stroke:#181818;stroke-width:1.0;" width="957" x="7" y="7"/><text fill="#000000" font-family="sans-serif" font-size="14" font-weight="bold" lengthAdjust="spacing" textLength="57.9209" x="456.5396" y="21.9951">Legend</text></g><!--entity Source in the Cloud\n- - -\n- OpenAlex\n- ...--><g id="elem_Source in the Cloud\n---\n- OpenAlex\n- ..."><path d="M31.6512,54.2903 C35.5678,47.8179 39.4911,47.6384 44.2783,53.391 C48.2654,48.1583 54.0196,48.4038 57.5719,53.9283 C60.5238,48.2206 65.6061,46.2823 69.9419,52.4918 C73.9848,45.5927 79.3128,46.6268 83.7636,52.0337 C88.2962,47.2735 92.1422,46.3102 96.0897,52.6816 C99.367,47.3449 102.8077,46.6844 107.5567,50.9184 C111.287,45.3167 116.916,44.8172 120.2997,51.2844 C125.65,45.6174 129.778,47.2061 133.2097,53.3768 C137.2314,46.3733 141.8125,46.8387 146.0418,53.1772 C149.8587,46.638 155.5018,47.5536 159.4832,52.9926 C163.625,48.8311 167.6559,47.9327 170.4752,54.3649 C175.0265,49.672 178.929,49.9504 182.767,55.2428 C188.5134,57.4502 189.6131,61.2422 186.0179,66.2169 C192.3136,69.4436 191.5834,74.0475 186.8107,78.0179 C192.1617,82.4712 192.6248,86.2121 186.557,90.4321 C191.8511,92.7725 191.2214,97.879 187.0374,100.6643 C191.5768,105.9376 191.5376,110.9072 184.5024,113.9763 C189.2736,117.7295 188.8214,122.733 182.7321,124.6921 C180.0706,129.8092 175.8216,130.4351 171.7496,126.3811 C167.818,132.732 162.7715,131.7323 158.9624,126.2488 C155.6263,133.4525 150.7404,133.886 145.9967,127.6018 C141.8848,133.3148 138.2282,134.0748 134.1285,127.5899 C130.3231,133.5602 125.7218,134.8045 120.8778,128.7328 C116.5994,134.9877 111.384,133.4003 107.9882,127.7753 C104.4547,133.8511 99.8535,133.3265 96.3749,127.7208 C92.8973,133.179 86.998,133.1612 83.822,127.3839 C79.4749,133.929 73.2688,132.8357 69.8591,126.3774 C66.9956,131.7116 61.808,131.8717 58.4591,126.9152 C52.8284,133.8526 47.8108,132.2938 44.2785,124.8466 C40.5476,130.8857 36.3109,129.5596 32.7022,124.7167 C26.5588,122.0642 25.798,117.9373 30.8868,113.4715 C25.1311,110.3029 22.8954,106.4063 28.7176,101.1923 C23.5737,97.7073 23.3173,93.1772 28.9418,89.9062 C24.063,86.2326 24.915,81.9584 29.645,78.8986 C23.4891,74.5318 24.548,68.3825 31.6726,66.1234 C25.9083,63.0074 25.3193,57.4282 31.6512,54.2903 " fill="#FFC0CB" style="stroke:#181818;stroke-width:0.5;"/><text fill="#000000" font-family="sans-serif" font-size="14" lengthAdjust="spacing" textLength="137.4707" x="38.26" y="73.1451">Source in the Cloud</text><line style="stroke:#181818;stroke-width:1.0;" x1="24.26" x2="189.7307" y1="76.4469" y2="76.4469"/><text fill="#000000" font-family="sans-serif" font-size="14" lengthAdjust="spacing" textLength="77.2598" x="38.26" y="93.442">- OpenAlex</text><text fill="#000000" font-family="sans-serif" font-size="14" lengthAdjust="spacing" textLength="22.8525" x="38.26" y="109.7389">- ...</text></g><!--entity Downloaded Corpus\n- - -\n**Format**: parquet dataset--><g id="elem_Downloaded Corpus\n---\n**Format**: parquet dataset"><path d="M225.78,63.79 C225.78,53.79 325.0027,53.79 325.0027,53.79 C325.0027,53.79 424.2253,53.79 424.2253,63.79 L424.2253,113.3838 C424.2253,123.3838 325.0027,123.3838 325.0027,123.3838 C325.0027,123.3838 225.78,123.3838 225.78,113.3838 L225.78,63.79 " fill="#FFFF00" style="stroke:#181818;stroke-width:0.5;"/><path d="M225.78,63.79 C225.78,73.79 325.0027,73.79 325.0027,73.79 C325.0027,73.79 424.2253,73.79 424.2253,63.79 " fill="none" style="stroke:#181818;stroke-width:0.5;"/><text fill="#000000" font-family="sans-serif" font-size="14" lengthAdjust="spacing" textLength="140.6904" x="235.78" y="90.7851">Downloaded Corpus</text><path d="M225.78,89.0869 C225.78,99.0869 325.0027,99.0869 325.0027,99.0869 C325.0027,99.0869 424.2253,99.0869 424.2253,89.0869 " fill="none" style="stroke:#181818;stroke-width:1.0;"/><text fill="#000000" font-family="sans-serif" font-size="14" font-weight="bold" lengthAdjust="spacing" textLength="56.8135" x="235.78" y="111.082">Format</text><text fill="#000000" font-family="sans-serif" font-size="14" lengthAdjust="spacing" textLength="121.6318" x="292.5935" y="111.082">: parquet dataset</text></g><!--entity Downloaded Intermediate Corpus\n- - -\n**Format**: parquet dataset--><g id="elem_Downloaded Intermediate Corpus\n---\n**Format**: parquet dataset"><path d="M459.15,63.79 C459.15,53.79 587.005,53.79 587.005,53.79 C587.005,53.79 714.86,53.79 714.86,63.79 L714.86,113.3838 C714.86,123.3838 587.005,123.3838 587.005,123.3838 C587.005,123.3838 459.15,123.3838 459.15,113.3838 L459.15,63.79 " fill="#F1F1F1" style="stroke:#181818;stroke-width:0.5;"/><path d="M459.15,63.79 C459.15,73.79 587.005,73.79 587.005,73.79 C587.005,73.79 714.86,73.79 714.86,63.79 " fill="none" style="stroke:#181818;stroke-width:0.5;"/><text fill="#000000" font-family="sans-serif" font-size="14" lengthAdjust="spacing" textLength="235.71" x="469.15" y="90.7851">Downloaded Intermediate Corpus</text><path d="M459.15,89.0869 C459.15,99.0869 587.005,99.0869 587.005,99.0869 C587.005,99.0869 714.86,99.0869 714.86,89.0869 " fill="none" style="stroke:#181818;stroke-width:1.0;"/><text fill="#000000" font-family="sans-serif" font-size="14" font-weight="bold" lengthAdjust="spacing" textLength="56.8135" x="469.15" y="111.082">Format</text><text fill="#000000" font-family="sans-serif" font-size="14" lengthAdjust="spacing" textLength="121.6318" x="525.9635" y="111.082">: parquet dataset</text></g><!--entity Action related to corpus\n- - -\n- Search Terms\n- Crossing corpuses\n- ...--><g id="elem_Action related to corpus\n---\n- Search Terms\n- Crossing corpuses\n- ..."><polygon fill="#F1F1F1" points="749.8,42,938.1965,42,948.1965,88.5938,938.1965,135.1875,749.8,135.1875" style="stroke:#181818;stroke-width:0.5;"/><text fill="#000000" font-family="sans-serif" font-size="14" lengthAdjust="spacing" textLength="168.3965" x="759.8" y="64.9951">Action related to corpus</text><line style="stroke:#181818;stroke-width:1.0;" x1="750.8" x2="947.1965" y1="68.2969" y2="68.2969"/><text fill="#000000" font-family="sans-serif" font-size="14" lengthAdjust="spacing" textLength="106.21" x="759.8" y="85.292">- Search Terms</text><text fill="#000000" font-family="sans-serif" font-size="14" lengthAdjust="spacing" textLength="137.2656" x="759.8" y="101.5889">- Crossing corpuses</text><text fill="#000000" font-family="sans-serif" font-size="14" lengthAdjust="spacing" textLength="22.8525" x="759.8" y="117.8857">- ...</text></g><!--entity Analysis related process\n- - -\n- extract numbers\n- ...--><g id="elem_Analysis related process\n---\n- extract numbers\n- ..."><polygon fill="#F1F1F1" points="22.74,223.63,223.2556,223.63,233.2556,262.0753,223.2556,300.5206,22.74,300.5206,32.74,262.0753" style="stroke:#181818;stroke-width:0.5;"/><text fill="#000000" font-family="sans-serif" font-size="14" lengthAdjust="spacing" textLength="170.5156" x="42.74" y="246.6251">Analysis related process</text><line style="stroke:#181818;stroke-width:1.0;" x1="23.74" x2="232.2556" y1="249.9269" y2="249.9269"/><text fill="#000000" font-family="sans-serif" font-size="14" lengthAdjust="spacing" textLength="125.7949" x="42.74" y="266.922">- extract numbers</text><text fill="#000000" font-family="sans-serif" font-size="14" lengthAdjust="spacing" textLength="22.8525" x="42.74" y="283.2189">- ...</text></g><!--entity Numeric results--><g id="elem_Numeric results"><rect fill="#F1F1F1" height="36.2969" rx="35" ry="35" style="stroke:#181818;stroke-width:0.5;" width="130.5986" x="268.7" y="243.93"/><text fill="#000000" font-family="sans-serif" font-size="14" lengthAdjust="spacing" textLength="110.5986" x="278.7" y="266.9251">Numeric results</text></g><!--entity Result saved as File\n- - -\nFile Format\n- - -\n- tables\n- figures\n- maps\n- ...--><g id="elem_Result saved as File\n---\nFile Format\n---\n- tables\n- figures\n- maps\n- ..."><path d="M434.39,197.68 L434.39,326.4613 A2.5,2.5 0 0 0 436.89,328.9613 L591.1039,328.9613 A2.5,2.5 0 0 0 593.6039,326.4613 L593.6039,205.18 L583.6039,195.18 L436.89,195.18 A2.5,2.5 0 0 0 434.39,197.68 " fill="#F1F1F1" style="stroke:#181818;stroke-width:0.5;"/><path d="M583.6039,195.18 L583.6039,202.68 A2.5,2.5 0 0 0 586.1039,205.18 L593.6039,205.18 " fill="#F1F1F1" style="stroke:#181818;stroke-width:0.5;"/><text fill="#000000" font-family="sans-serif" font-size="14" lengthAdjust="spacing" textLength="139.2139" x="444.39" y="218.1751">Result saved as File</text><line style="stroke:#181818;stroke-width:1.0;" x1="435.39" x2="592.6039" y1="221.4769" y2="221.4769"/><text fill="#000000" font-family="sans-serif" font-size="14" lengthAdjust="spacing" textLength="78.9756" x="444.39" y="238.472">File Format</text><line style="stroke:#181818;stroke-width:1.0;" x1="435.39" x2="592.6039" y1="245.7738" y2="245.7738"/><text fill="#000000" font-family="sans-serif" font-size="14" lengthAdjust="spacing" textLength="52.2539" x="444.39" y="262.7689">- tables</text><text fill="#000000" font-family="sans-serif" font-size="14" lengthAdjust="spacing" textLength="57.7432" x="444.39" y="279.0657">- figures</text><text fill="#000000" font-family="sans-serif" font-size="14" lengthAdjust="spacing" textLength="47.8994" x="444.39" y="295.3626">- maps</text><text fill="#000000" font-family="sans-serif" font-size="14" lengthAdjust="spacing" textLength="22.8525" x="444.39" y="311.6595">- ...</text></g><!--entity Result Data\n- - -\n**Filename**: ...--><g id="elem_Result Data\n---\n**Filename**: ..."><path d="M628.66,234.28 L628.66,289.8738 A2.5,2.5 0 0 0 631.16,292.3738 L740.8309,292.3738 A2.5,2.5 0 0 0 743.3309,289.8738 L743.3309,241.78 L733.3309,231.78 L631.16,231.78 A2.5,2.5 0 0 0 628.66,234.28 " fill="#FFFF00" style="stroke:#181818;stroke-width:0.5;"/><path d="M733.3309,231.78 L733.3309,239.28 A2.5,2.5 0 0 0 735.8309,241.78 L743.3309,241.78 " fill="#FFFF00" style="stroke:#181818;stroke-width:0.5;"/><text fill="#000000" font-family="sans-serif" font-size="14" lengthAdjust="spacing" textLength="81.7646" x="638.66" y="254.7751">Result Data</text><line style="stroke:#181818;stroke-width:1.0;" x1="629.66" x2="742.3309" y1="258.0769" y2="258.0769"/><text fill="#000000" font-family="sans-serif" font-size="14" font-weight="bold" lengthAdjust="spacing" textLength="72.1533" x="638.66" y="275.072">Filename</text><text fill="#000000" font-family="sans-serif" font-size="14" lengthAdjust="spacing" textLength="22.5176" x="710.8133" y="275.072">: ...</text></g><!--entity Result Figure\n- - -\n**Filename**: ...--><g id="elem_Result Figure\n---\n**Filename**: ..."><path d="M70.66,391.47 L70.66,447.0637 A2.5,2.5 0 0 0 73.16,449.5637 L182.8309,449.5637 A2.5,2.5 0 0 0 185.3309,447.0637 L185.3309,398.97 L175.3309,388.97 L73.16,388.97 A2.5,2.5 0 0 0 70.66,391.47 " fill="#F08080" style="stroke:#181818;stroke-width:0.5;"/><path d="M175.3309,388.97 L175.3309,396.47 A2.5,2.5 0 0 0 177.8309,398.97 L185.3309,398.97 " fill="#F08080" style="stroke:#181818;stroke-width:0.5;"/><text fill="#000000" font-family="sans-serif" font-size="14" lengthAdjust="spacing" textLength="92.4082" x="80.66" y="411.9651">Result Figure</text><line style="stroke:#181818;stroke-width:1.0;" x1="71.66" x2="184.3309" y1="415.2669" y2="415.2669"/><text fill="#000000" font-family="sans-serif" font-size="14" font-weight="bold" lengthAdjust="spacing" textLength="72.1533" x="80.66" y="432.262">Filename</text><text fill="#000000" font-family="sans-serif" font-size="14" lengthAdjust="spacing" textLength="22.5176" x="152.8133" y="432.262">: ...</text></g><!--entity Result Map\n- - -\n**Filename**: ...--><g id="elem_Result Map\n---\n**Filename**: ..."><path d="M220.66,391.47 L220.66,447.0637 A2.5,2.5 0 0 0 223.16,449.5637 L332.8309,449.5637 A2.5,2.5 0 0 0 335.3309,447.0637 L335.3309,398.97 L325.3309,388.97 L223.16,388.97 A2.5,2.5 0 0 0 220.66,391.47 " fill="#E0FFFF" style="stroke:#181818;stroke-width:0.5;"/><path d="M325.3309,388.97 L325.3309,396.47 A2.5,2.5 0 0 0 327.8309,398.97 L335.3309,398.97 " fill="#E0FFFF" style="stroke:#181818;stroke-width:0.5;"/><text fill="#000000" font-family="sans-serif" font-size="14" lengthAdjust="spacing" textLength="77.8818" x="230.66" y="411.9651">Result Map</text><line style="stroke:#181818;stroke-width:1.0;" x1="221.66" x2="334.3309" y1="415.2669" y2="415.2669"/><text fill="#000000" font-family="sans-serif" font-size="14" font-weight="bold" lengthAdjust="spacing" textLength="72.1533" x="230.66" y="432.262">Filename</text><text fill="#000000" font-family="sans-serif" font-size="14" lengthAdjust="spacing" textLength="22.5176" x="302.8133" y="432.262">: ...</text></g><!--SRC=[xLjjRziu4lxkNq6uE6ItGEp4Bzb3SRU0rqsp0TgaLsVliDi60YCnib1PqebKNhReVp- -IIH5qbAsgLCSwW-MH0vd7iuCoT6G2jEyYi3m7pZv4xsOp7v-_tvDI85VZCTvWJAOehjHNiRWd3uiwCFbvH103EewyAn8ie-3mHwuM2x069oa-HLCmJ8lYmeFIXGIcCKf0aD7DMTqbTy598JWqm3G7mn9acTWk4Am3DVW0fKRe00bnHN2-n4aS1GdP5rTZP9yVFhsb-DLGDa7WkkOSWj2SPjaHKN6c3Fxs-I0K7Pud45IbMX4xWWuMrpyzkxuyX8ipbu-kXno7N8X5w-MKcc2W7MNTvO9k8AOAaTm1Faru5B0HGapV9sN6qYI6mIMQwf411OO8umtA2CVidtw-v0vbCghFcJFdvzcOLhXv2OXzy-Vlw0yKFWHHQncLQ0mkKv2MNEMaxgMenHzuaPvTe_IDB_bQ1kBx-__tEw9UWJxKNwRKGh5XLFiWHNrXRp4XfcFxqX9xpNLHtc8Ht6UKvyPXVbcZ8iImGYl4I9u78qF_rZ-4gp8vE9VLN3xUdgV7YPdF_tdxi_vg-Dt9tSVzq_-M1m4a_maVFVcO8oYX3oBa-YVayE3e_dV3tuwh458Uo0XFi2Yj06hQQ3kZezKsP3PGhBNrQWrCDJfODZMdIvBAh4koczG6P1aWmBkfMKaz5gKUKXT10pVbgY09Qe10KOF63ruIUavlaAGC2c2KwltBc3UDjS96-E6j8jQMkEHhoXH1ZU8EPs_8nmSusT8CNJdWj5Wj9hwL4SfOpeHRCN_YfCqFVY2AK88msCBngY8hcrmenzOyHWKMVoZz5QpOuAVKCth95uJAXAcJMVww4QnQAc8kb6Hbso8zbBNMqNkKzqZAiu9pb2YcsABGbc3nz2gYqyzSelgAar2s48Lg8xw1_5RrTGUlfJlWuUlrKROKvVJs17hO_WBpCX8nxsKq4zLkWtr_ZWd2eF0C9kb2f-bRFTtgklHtTwDXlkxfyhZw4rFktoyXx9qz_xCWhybNGAn8-hJopcKiigo98k3m__tWE-hI0YfEhc8vM9rR0ML0QlkYYnfbB9SJy2-C9dqKzrClW1I2nCTGQGdWkIG-eIH2dkhp15G2bhkTnSeN6TvciVthbUEfbAzQIZwn_2_zKJZA4tMAbItmZUEbx-UdRy-F_dzmIxIGzXDWcblkA1_dwvEpyzQFj9Gjho4jDMecp79IBjbhRLbcTE5wfQY5OwbjMKrt5XUeNxNL8QJpcYP-QyvgSj75UTEBpKxOfMsFTMXDsUDQkVJcVu-ifNEKM6D7zL4h7UULQHND7BXVADG2uYx6pQshfQF7v-OuuO79wqolrw0lyeTbRXzR4kdVJ6AgPMzNi7AtjS8LqnLrR5AFmq-GkYYARGLmUpvTRyzb6aFYxPk2uenpAkCbFVcE_UUFKIMd2wHlccCZR2kietPFJosDBPjR89mleHtTb2Pm2NQyEQzhIXDvJlx8HRqLNM5aoXn1fFjkcPLnqt59_0zgjI7wLpf9YWHooXA8NJbSjJ5R2XcBCD8nqK6ip21AQKgsEiq1x7wxPVLwSlJuvKPM3ICl8kdIT4L1Cnf4A2iZKd5hjA5srxmQA60yYBThzluhIHTqx4cpvcnYIKZ058jtEEadV9aoWHKtHhbGbBAh2IZe2_mr0gcsYoWAZlfQw8qRKi30ekPhRGuE7dRgKgh7KidqS9Q2Qfs5E8RCxImeKcZ7j_HCK2BE4J5oQyPDyXjBUjKbgMSTmXNAS4FNneVEEQOw5feiA8TGI8BuYatSrT6TtMtzNIvdRCorD4iV5WNZRbeDMTlM_XM1LrCOAfvjYFTJ6Mg1Q3jCwv-sTddJXRKeauedbnqHtTR6dU8zYo5NdBR3Ax-60RXdGZUPwWQ5pbTVb0y3lDDGPj5bzhYpRXlO64emoM5qUZuHHnr3pFmNZPbFwMzDvIU_scrL9VQqvSD4OR7Cq9KxsddpQu6C4rbxdSxZH5PFZNemuDEp9Ja2I5J1-lKivlccm9jwTb9ygIk4VVmv_XRy-Uusv_ZRqhFRABiLBI7wDk2RQdQJUC2VMajiGzTcSmrWxFJGhts4ie0ObJMb8wzwNfjCVUBxN21lwZROLklEC7JLW_vUcrNR-kV8qOmnNfshsqwM_iE_9hEUGUq38epF1ZpuPZZIvaMqhJWaoFJ8bZFhyZ0m0mBsfaatD3KmS6NZvKwlTGnNEpjOBiYS8oCfm0OI9FuWTO4JugNWV0grQnyOfpLDfpLjuAJnHzUd6Rba-BaYueNQAlMHdhPcg8VECdLay-Wu-p4zgDF_KvDz4omTBJhkp-n9VswxI2KBNNxHe97rHxmJtJYuU4E-jNs4wpNOC-1Y2wzjjav_TUxaV3NjX4UwC2-XhlRFzZkmvqXgJ_lOw1n94DKmCCCrfN_O3-tEfeaoED6EVoDGDiCS7V7zdPLjNKYxbIihHIv9QFjm2oYA65IULwjsLeHPePDNT1iZTCwy6aWtfTsiISJhW-3WqDnGcPz20uEpMqAKItnx6dx52KpljgiCEXsXdkYS4ySk2SEt2t8arr3dYh8KmVaQKzLJtUDUwPmpnouPprnptQDUwvmpnsuvprnptUD-qZXFdBWFkg9-sYmK-3rWBH6uwGFtibkmKxLn3TrJ7pJdXFVTDSJtrHDV5F7n3TrJtmkt9DTuvugt5C7xcbFtDDTuvuft3C7xbbFtBDTuvuht7C7xdbFtFDTupvIk8ySk8zwuZvwiWbbvfXGPZqdbDaJJYWpnuGowpcXIBhF0vsgAjXf0dUWEp2EAf4I4XIp87iCpWiUgSll9iLtCjzFlpzS0cwK6aWrZZOHSAaQ_B2fKf8KAVhHjBzivpscfDThHsTS8XZIl8JrfvZd6GBq5LXMwsTgT9wc676QrwJwB3ByXZSjr5U5K7no9VtdknCzM89G87CSeLMlgq3rkQhBKxHgvIYIvTBj6hnMzmoDXy5Lzmj9Gz_4wKpq-lZa-Epb84Et1OoHvYAlKOooI7f5ABxeNkLL6IAGP82i4LYoGfd5sM- -vcRtez5eA3_ZDdlpCh_DqXn6A6eVjNl5FqtcAI1O_hT2XBV2Y0oDf8wJrMd6386YX0wf_dmDJr-8QubIoYC299VAQhgd9oVOC_zE8SbYISVF4l9-cuctvknNpLdMD7pbHxiWgpPNg3IvO6edQXGmFAisg4n2oeGV81jg-JLnfWnWU4EPKpzWoJJ9dDq2qVz67DLUAh3An2YxPJaQGx31sfkh4rR-NHd7QDRwpjLkwCYBDetVmAApvJtCk0zpDpO_cbvKP5sF6lFB4yY_C6lJN-H54hh8YVWWRS_wl1mA2U9qfUGgoF9I_DTFOp0Kro4hYVafJlRFdagIN7DkyeQMNR7jLLZUDpUqB8HbnF_OVLA6L57YmfxpD4LXlNuqzxncK-GPazVSyTACb7bQNsa9suKXz_8oqCvtiViyZUWq8oxikOGiYy_-wTCQtS6OQaLUQKd2HYBj2L9tj3I5LoWL__GfooF4_-Xz0SEFpCFbbPNGGK1PYij07GYKLrf21t65nB-HIcpkQ2acbA7uvqzY7CahBQ43bdy99g-gX5ghlXl-3m00]--></g></svg>